<svg width="223" height="80" viewBox="0 0 223 80" fill="none" xmlns="http://www.w3.org/2000/svg">
<rect x="0.528436" y="6.2843" width="215.073" height="72.3957" fill="white"/>
<rect x="0.528436" y="6.2843" width="215.073" height="72.3957" stroke="#010101" stroke-width="1.05687"/>
<rect x="7.37012" y="1.38989" width="215.13" height="72.673" fill="#010101"/>
<path d="M74.2663 39.9118H77.2467C77.1869 40.8886 76.9178 41.7559 76.4393 42.5134C75.9675 43.271 75.3063 43.8624 74.4557 44.2877C73.6118 44.713 72.595 44.9257 71.4055 44.9257C70.4752 44.9257 69.6412 44.7662 68.9035 44.4472C68.1659 44.1216 67.5346 43.6564 67.0096 43.0517C66.4913 42.447 66.0959 41.716 65.8234 40.8587C65.551 40.0015 65.4148 39.0412 65.4148 37.978V36.9712C65.4148 35.908 65.5543 34.9477 65.8334 34.0905C66.1192 33.2266 66.5245 32.4923 67.0495 31.8876C67.5811 31.2828 68.2158 30.8177 68.9534 30.492C69.691 30.1664 70.515 30.0036 71.4254 30.0036C72.6349 30.0036 73.655 30.2229 74.4856 30.6615C75.3229 31.1001 75.9708 31.7048 76.4294 32.4757C76.8945 33.2465 77.1736 34.1237 77.2667 35.1072H74.2763C74.2431 34.5224 74.1268 34.0274 73.9274 33.622C73.728 33.21 73.4257 32.901 73.0203 32.695C72.6216 32.4823 72.09 32.376 71.4254 32.376C70.927 32.376 70.4918 32.469 70.1196 32.6551C69.7475 32.8412 69.4352 33.1236 69.1827 33.5024C68.9301 33.8812 68.7407 34.3596 68.6145 34.9378C68.4949 35.5093 68.4351 36.1804 68.4351 36.9513V37.978C68.4351 38.7289 68.4915 39.3901 68.6045 39.9616C68.7175 40.5265 68.8903 41.0049 69.1228 41.397C69.3621 41.7824 69.6678 42.0748 70.0399 42.2742C70.4187 42.4669 70.8739 42.5633 71.4055 42.5633C72.0302 42.5633 72.5452 42.4636 72.9505 42.2642C73.3559 42.0649 73.6649 41.7692 73.8776 41.3771C74.0969 40.985 74.2264 40.4966 74.2663 39.9118ZM78.5725 39.4433V39.234C78.5725 38.4432 78.6855 37.7155 78.9114 37.051C79.1373 36.3798 79.4663 35.7983 79.8982 35.3066C80.3302 34.8148 80.8618 34.4327 81.4931 34.1603C82.1244 33.8812 82.8487 33.7416 83.6661 33.7416C84.4835 33.7416 85.2112 33.8812 85.8491 34.1603C86.4871 34.4327 87.022 34.8148 87.4539 35.3066C87.8925 35.7983 88.2248 36.3798 88.4507 37.051C88.6767 37.7155 88.7897 38.4432 88.7897 39.234V39.4433C88.7897 40.2274 88.6767 40.9551 88.4507 41.6263C88.2248 42.2908 87.8925 42.8723 87.4539 43.3707C87.022 43.8624 86.4904 44.2445 85.8591 44.517C85.2278 44.7894 84.5034 44.9257 83.6861 44.9257C82.8687 44.9257 82.141 44.7894 81.5031 44.517C80.8718 44.2445 80.3368 43.8624 79.8982 43.3707C79.4663 42.8723 79.1373 42.2908 78.9114 41.6263C78.6855 40.9551 78.5725 40.2274 78.5725 39.4433ZM81.4433 39.234V39.4433C81.4433 39.8952 81.4831 40.3172 81.5629 40.7092C81.6426 41.1013 81.7689 41.4469 81.9417 41.7459C82.1211 42.0383 82.3537 42.2676 82.6394 42.4337C82.9252 42.5998 83.274 42.6829 83.6861 42.6829C84.0848 42.6829 84.427 42.5998 84.7128 42.4337C84.9985 42.2676 85.2278 42.0383 85.4005 41.7459C85.5733 41.4469 85.6996 41.1013 85.7793 40.7092C85.8657 40.3172 85.9089 39.8952 85.9089 39.4433V39.234C85.9089 38.7954 85.8657 38.3834 85.7793 37.9979C85.6996 37.6059 85.57 37.2603 85.3906 36.9613C85.2178 36.6556 84.9885 36.4163 84.7028 36.2436C84.417 36.0708 84.0715 35.9844 83.6661 35.9844C83.2608 35.9844 82.9152 36.0708 82.6294 36.2436C82.3503 36.4163 82.1211 36.6556 81.9417 36.9613C81.7689 37.2603 81.6426 37.6059 81.5629 37.9979C81.4831 38.3834 81.4433 38.7954 81.4433 39.234ZM93.365 36.2436V44.7263H90.4942V33.941H93.1855L93.365 36.2436ZM92.9463 38.9549H92.1688C92.1688 38.1574 92.2718 37.4397 92.4778 36.8018C92.6838 36.1572 92.9729 35.6089 93.345 35.1571C93.7172 34.6985 94.1591 34.3497 94.6708 34.1104C95.1891 33.8645 95.7672 33.7416 96.4052 33.7416C96.9102 33.7416 97.3721 33.8147 97.7907 33.9609C98.2094 34.1071 98.5682 34.3397 98.8673 34.6587C99.173 34.9776 99.4056 35.3996 99.565 35.9246C99.7312 36.4496 99.8142 37.0908 99.8142 37.8484V44.7263H96.9235V37.8384C96.9235 37.36 96.8571 36.9878 96.7242 36.722C96.5913 36.4562 96.3952 36.2702 96.1361 36.1638C95.8835 36.0509 95.5712 35.9944 95.1991 35.9944C94.8136 35.9944 94.478 36.0708 94.1923 36.2236C93.9132 36.3765 93.6806 36.5891 93.4945 36.8616C93.3151 37.1274 93.1789 37.4397 93.0859 37.7986C92.9928 38.1574 92.9463 38.5429 92.9463 38.9549ZM107.28 33.941V35.9744H101V33.941H107.28ZM102.555 31.2795H105.426V41.4768C105.426 41.7891 105.466 42.0283 105.546 42.1945C105.632 42.3606 105.758 42.4769 105.925 42.5433C106.091 42.6031 106.3 42.633 106.553 42.633C106.732 42.633 106.892 42.6264 107.031 42.6131C107.177 42.5932 107.3 42.5732 107.4 42.5533L107.41 44.6665C107.164 44.7463 106.898 44.8094 106.612 44.8559C106.327 44.9024 106.011 44.9257 105.665 44.9257C105.034 44.9257 104.483 44.8227 104.011 44.6167C103.546 44.404 103.187 44.0651 102.934 43.5999C102.682 43.1348 102.555 42.5234 102.555 41.7658V31.2795ZM114.736 42.2941V37.4896C114.736 37.144 114.68 36.8483 114.567 36.6024C114.454 36.3499 114.278 36.1539 114.039 36.0143C113.806 35.8748 113.504 35.805 113.131 35.805C112.812 35.805 112.537 35.8615 112.304 35.9744C112.072 36.0808 111.892 36.2369 111.766 36.4429C111.64 36.6423 111.576 36.8782 111.576 37.1507H108.706C108.706 36.6921 108.812 36.2569 109.025 35.8449C109.237 35.4328 109.546 35.0707 109.952 34.7583C110.357 34.4394 110.839 34.1902 111.397 34.0107C111.962 33.8313 112.593 33.7416 113.291 33.7416C114.128 33.7416 114.873 33.8812 115.524 34.1603C116.175 34.4394 116.687 34.858 117.059 35.4162C117.438 35.9744 117.627 36.6722 117.627 37.5095V42.1247C117.627 42.7161 117.664 43.2012 117.737 43.58C117.81 43.9521 117.916 44.2778 118.056 44.5569V44.7263H115.155C115.015 44.4339 114.909 44.0684 114.836 43.6298C114.77 43.1846 114.736 42.7394 114.736 42.2941ZM115.115 38.1574L115.135 39.7822H113.53C113.151 39.7822 112.822 39.8254 112.543 39.9118C112.264 39.9982 112.035 40.1211 111.856 40.2806C111.676 40.4334 111.543 40.6129 111.457 40.8189C111.377 41.0249 111.337 41.2508 111.337 41.4967C111.337 41.7426 111.394 41.9652 111.507 42.1645C111.62 42.3573 111.782 42.5101 111.995 42.6231C112.208 42.7294 112.457 42.7826 112.743 42.7826C113.175 42.7826 113.55 42.6962 113.869 42.5234C114.188 42.3506 114.434 42.138 114.607 41.8854C114.786 41.6329 114.879 41.3937 114.886 41.1678L115.643 42.3838C115.537 42.6563 115.391 42.9387 115.205 43.2311C115.025 43.5235 114.796 43.7993 114.517 44.0585C114.238 44.311 113.902 44.5203 113.51 44.6864C113.118 44.8459 112.653 44.9257 112.115 44.9257C111.43 44.9257 110.809 44.7894 110.251 44.517C109.699 44.2379 109.261 43.8558 108.935 43.3707C108.616 42.8789 108.456 42.3207 108.456 41.6961C108.456 41.1312 108.563 40.6295 108.775 40.1909C108.988 39.7523 109.3 39.3835 109.712 39.0844C110.131 38.7788 110.653 38.5495 111.277 38.3967C111.902 38.2372 112.626 38.1574 113.45 38.1574H115.115ZM124.296 42.6829C124.648 42.6829 124.96 42.6164 125.233 42.4835C125.505 42.344 125.718 42.1513 125.871 41.9054C126.03 41.6529 126.113 41.3571 126.12 41.0182H128.821C128.814 41.7758 128.612 42.4503 128.213 43.0417C127.814 43.6265 127.279 44.0884 126.608 44.4273C125.937 44.7595 125.186 44.9257 124.355 44.9257C123.518 44.9257 122.787 44.7861 122.162 44.507C121.544 44.2279 121.029 43.8425 120.617 43.3507C120.205 42.8523 119.896 42.2742 119.69 41.6163C119.484 40.9518 119.381 40.2407 119.381 39.4832V39.1941C119.381 38.4299 119.484 37.7188 119.69 37.0609C119.896 36.3964 120.205 35.8183 120.617 35.3265C121.029 34.8281 121.544 34.4394 122.162 34.1603C122.78 33.8812 123.505 33.7416 124.335 33.7416C125.219 33.7416 125.993 33.9111 126.658 34.25C127.329 34.5889 127.854 35.074 128.233 35.7053C128.618 36.33 128.814 37.0709 128.821 37.9282H126.12C126.113 37.5693 126.037 37.2437 125.89 36.9513C125.751 36.6589 125.545 36.4263 125.272 36.2535C125.007 36.0741 124.678 35.9844 124.286 35.9844C123.867 35.9844 123.525 36.0741 123.259 36.2535C122.993 36.4263 122.787 36.6655 122.641 36.9712C122.495 37.2703 122.392 37.6125 122.332 37.9979C122.279 38.3767 122.252 38.7754 122.252 39.1941V39.4832C122.252 39.9018 122.279 40.3039 122.332 40.6893C122.385 41.0747 122.485 41.417 122.631 41.716C122.784 42.015 122.993 42.2509 123.259 42.4237C123.525 42.5965 123.87 42.6829 124.296 42.6829ZM135.769 33.941V35.9744H129.489V33.941H135.769ZM131.044 31.2795H133.915V41.4768C133.915 41.7891 133.955 42.0283 134.034 42.1945C134.121 42.3606 134.247 42.4769 134.413 42.5433C134.579 42.6031 134.789 42.633 135.041 42.633C135.22 42.633 135.38 42.6264 135.52 42.6131C135.666 42.5932 135.789 42.5732 135.888 42.5533L135.898 44.6665C135.652 44.7463 135.387 44.8094 135.101 44.8559C134.815 44.9024 134.499 44.9257 134.154 44.9257C133.523 44.9257 132.971 44.8227 132.499 44.6167C132.034 44.404 131.675 44.0651 131.423 43.5999C131.17 43.1348 131.044 42.5234 131.044 41.7658V31.2795ZM150.681 30.2129H153.661V39.8021C153.661 40.9186 153.422 41.8589 152.944 42.6231C152.472 43.3873 151.817 43.9621 150.98 44.3475C150.149 44.733 149.192 44.9257 148.109 44.9257C147.026 44.9257 146.062 44.733 145.218 44.3475C144.381 43.9621 143.723 43.3873 143.245 42.6231C142.773 41.8589 142.537 40.9186 142.537 39.8021V30.2129H145.527V39.8021C145.527 40.4534 145.63 40.985 145.836 41.397C146.042 41.809 146.338 42.1114 146.724 42.3041C147.116 42.4968 147.577 42.5932 148.109 42.5932C148.654 42.5932 149.116 42.4968 149.495 42.3041C149.88 42.1114 150.172 41.809 150.372 41.397C150.578 40.985 150.681 40.4534 150.681 39.8021V30.2129ZM161.775 41.7459C161.775 41.5399 161.715 41.3538 161.596 41.1877C161.476 41.0216 161.254 40.8687 160.928 40.7292C160.609 40.583 160.147 40.4501 159.542 40.3304C158.997 40.2108 158.489 40.0613 158.017 39.8819C157.552 39.6958 157.147 39.4732 156.801 39.214C156.462 38.9549 156.196 38.6492 156.004 38.297C155.811 37.9381 155.715 37.5294 155.715 37.0709C155.715 36.619 155.811 36.1937 156.004 35.795C156.203 35.3963 156.486 35.0441 156.851 34.7384C157.223 34.4261 157.675 34.1835 158.207 34.0107C158.745 33.8313 159.35 33.7416 160.021 33.7416C160.958 33.7416 161.762 33.8911 162.433 34.1902C163.111 34.4892 163.629 34.9012 163.988 35.4262C164.354 35.9445 164.536 36.536 164.536 37.2005H161.666C161.666 36.9214 161.606 36.6722 161.486 36.4529C161.373 36.227 161.194 36.0509 160.948 35.9246C160.709 35.7917 160.396 35.7252 160.011 35.7252C159.692 35.7252 159.416 35.7817 159.184 35.8947C158.951 36.001 158.771 36.1472 158.645 36.3333C158.526 36.5127 158.466 36.7121 158.466 36.9314C158.466 37.0975 158.499 37.247 158.565 37.3799C158.639 37.5062 158.755 37.6225 158.914 37.7288C159.074 37.8351 159.28 37.9348 159.532 38.0278C159.792 38.1142 160.111 38.194 160.489 38.2671C161.267 38.4266 161.961 38.6359 162.573 38.8951C163.184 39.1476 163.669 39.4931 164.028 39.9317C164.387 40.3637 164.566 40.9318 164.566 41.6362C164.566 42.1147 164.46 42.5533 164.247 42.952C164.035 43.3507 163.729 43.6996 163.33 43.9987C162.931 44.2911 162.453 44.5203 161.895 44.6864C161.343 44.8459 160.722 44.9257 160.031 44.9257C159.027 44.9257 158.177 44.7463 157.479 44.3874C156.788 44.0286 156.263 43.5734 155.904 43.0218C155.552 42.4636 155.376 41.8921 155.376 41.3073H158.097C158.11 41.6994 158.21 42.015 158.396 42.2543C158.589 42.4935 158.831 42.6663 159.124 42.7726C159.423 42.8789 159.745 42.9321 160.091 42.9321C160.463 42.9321 160.772 42.8822 161.018 42.7826C161.263 42.6762 161.45 42.5367 161.576 42.3639C161.709 42.1845 161.775 41.9785 161.775 41.7459Z" fill="white"/>
<rect x="7.37012" y="1.38989" width="215.13" height="72.673" stroke="black"/>
</svg>
