<svg width="223" height="80" viewBox="0 0 223 80" fill="none" xmlns="http://www.w3.org/2000/svg">
<rect x="0.528436" y="6.28436" width="215.073" height="72.3957" fill="#00D1FF"/>
<rect x="0.528436" y="6.28436" width="215.073" height="72.3957" stroke="#010101" stroke-width="1.05687"/>
<rect x="7.37012" y="1.3898" width="215.13" height="72.673" fill="white"/>
<path d="M75.3429 37.1407V42.8922C75.1169 43.1646 74.768 43.4604 74.2962 43.7793C73.8244 44.0917 73.2164 44.3608 72.4721 44.5867C71.7278 44.8127 70.8274 44.9256 69.7708 44.9256C68.8338 44.9256 67.9798 44.7728 67.209 44.4671C66.4381 44.1548 65.7736 43.6996 65.2154 43.1015C64.6638 42.5034 64.2385 41.7724 63.9395 40.9086C63.6405 40.038 63.4909 39.0445 63.4909 37.9281V37.021C63.4909 35.9046 63.6338 34.9112 63.9196 34.0406C64.212 33.1701 64.6273 32.4358 65.1656 31.8377C65.7038 31.2396 66.3451 30.7844 67.0894 30.4721C67.8337 30.1598 68.661 30.0036 69.5714 30.0036C70.834 30.0036 71.8707 30.2096 72.6814 30.6216C73.4921 31.027 74.1102 31.5918 74.5355 32.3162C74.9674 33.0339 75.2332 33.8579 75.3329 34.7882H72.4322C72.3591 34.2965 72.2196 33.8678 72.0136 33.5023C71.8076 33.1369 71.5118 32.8511 71.1264 32.6451C70.7476 32.4391 70.2559 32.3361 69.6511 32.3361C69.1527 32.3361 68.7075 32.4391 68.3154 32.6451C67.93 32.8445 67.6044 33.1402 67.3386 33.5323C67.0728 33.9243 66.8701 34.4094 66.7305 34.9876C66.591 35.5657 66.5212 36.2369 66.5212 37.0011V37.9281C66.5212 38.6857 66.5943 39.3569 66.7405 39.9417C66.8867 40.5198 67.1027 41.0082 67.3884 41.407C67.6808 41.799 68.0397 42.0947 68.465 42.2941C68.8903 42.4935 69.3853 42.5931 69.9502 42.5931C70.422 42.5931 70.8141 42.5533 71.1264 42.4735C71.4454 42.3938 71.7012 42.2974 71.8939 42.1845C72.0933 42.0648 72.2461 41.9519 72.3525 41.8455V39.2738H69.6212V37.1407H75.3429ZM82.5397 44.9256C81.7024 44.9256 80.9515 44.7927 80.287 44.5269C79.6224 44.2545 79.0576 43.879 78.5924 43.4005C78.1339 42.9221 77.7817 42.3672 77.5358 41.7359C77.2899 41.0979 77.167 40.4201 77.167 39.7024V39.3037C77.167 38.4863 77.2833 37.7387 77.5159 37.0609C77.7485 36.3831 78.0807 35.795 78.5127 35.2966C78.9513 34.7982 79.4829 34.4161 80.1076 34.1503C80.7322 33.8778 81.4366 33.7416 82.2208 33.7416C82.985 33.7416 83.6628 33.8678 84.2542 34.1204C84.8457 34.3729 85.3407 34.7317 85.7395 35.1969C86.1448 35.6621 86.4505 36.2203 86.6565 36.8715C86.8625 37.5161 86.9655 38.2338 86.9655 39.0246V40.2208H78.3931V38.3069H84.1446V38.0876C84.1446 37.6889 84.0715 37.3334 83.9253 37.021C83.7857 36.7021 83.5731 36.4495 83.2873 36.2635C83.0016 36.0774 82.6361 35.9844 82.1909 35.9844C81.8121 35.9844 81.4865 36.0674 81.214 36.2336C80.9415 36.3997 80.7189 36.6323 80.5461 36.9313C80.38 37.2304 80.2538 37.5826 80.1674 37.9879C80.0876 38.3867 80.0477 38.8252 80.0477 39.3037V39.7024C80.0477 40.1344 80.1076 40.5331 80.2272 40.8986C80.3534 41.2641 80.5295 41.5797 80.7555 41.8455C80.9881 42.1114 81.2672 42.3174 81.5928 42.4636C81.925 42.6098 82.3005 42.6829 82.7192 42.6829C83.2375 42.6829 83.7193 42.5832 84.1645 42.3838C84.6164 42.1778 85.0052 41.8688 85.3308 41.4568L86.7263 42.9719C86.5003 43.2975 86.1913 43.6099 85.7993 43.9089C85.4138 44.208 84.9487 44.4538 84.4038 44.6465C83.8588 44.8326 83.2375 44.9256 82.5397 44.9256ZM93.8833 33.9409V35.9744H87.6035V33.9409H93.8833ZM89.1585 31.2795H92.0293V41.4767C92.0293 41.7891 92.0691 42.0283 92.1489 42.1944C92.2353 42.3606 92.3615 42.4768 92.5277 42.5433C92.6938 42.6031 92.9031 42.633 93.1556 42.633C93.3351 42.633 93.4945 42.6264 93.6341 42.6131C93.7803 42.5931 93.9032 42.5732 94.0029 42.5533L94.0129 44.6665C93.767 44.7462 93.5012 44.8094 93.2154 44.8559C92.9297 44.9024 92.614 44.9256 92.2685 44.9256C91.6372 44.9256 91.0856 44.8226 90.6138 44.6166C90.1486 44.404 89.7898 44.0651 89.5373 43.5999C89.2847 43.1347 89.1585 42.5234 89.1585 41.7658V31.2795ZM108.337 40.9285C108.337 40.6693 108.297 40.4367 108.217 40.2307C108.144 40.0181 108.005 39.8254 107.799 39.6526C107.593 39.4732 107.304 39.2971 106.931 39.1243C106.559 38.9515 106.077 38.7721 105.486 38.586C104.828 38.3734 104.203 38.1341 103.612 37.8683C103.027 37.6025 102.509 37.2935 102.057 36.9413C101.612 36.5825 101.26 36.1671 101 35.6953C100.748 35.2235 100.622 34.6752 100.622 34.0506C100.622 33.4459 100.755 32.8976 101.02 32.4059C101.286 31.9075 101.658 31.4822 102.137 31.13C102.615 30.7711 103.18 30.4953 103.831 30.3026C104.489 30.1099 105.21 30.0136 105.994 30.0136C107.064 30.0136 107.998 30.2063 108.795 30.5917C109.593 30.9771 110.211 31.5054 110.649 32.1766C111.095 32.8478 111.317 33.6153 111.317 34.4792H108.347C108.347 34.0539 108.257 33.6818 108.078 33.3628C107.905 33.0372 107.639 32.7813 107.28 32.5953C106.928 32.4092 106.483 32.3162 105.945 32.3162C105.426 32.3162 104.994 32.3959 104.649 32.5554C104.303 32.7082 104.044 32.9176 103.871 33.1834C103.698 33.4425 103.612 33.7349 103.612 34.0606C103.612 34.3064 103.672 34.529 103.791 34.7284C103.918 34.9278 104.104 35.1138 104.35 35.2866C104.596 35.4594 104.898 35.6222 105.257 35.775C105.616 35.9279 106.031 36.0774 106.503 36.2236C107.294 36.4628 107.988 36.732 108.586 37.031C109.191 37.33 109.696 37.6656 110.101 38.0378C110.507 38.4099 110.812 38.8319 111.018 39.3037C111.224 39.7755 111.327 40.3105 111.327 40.9086C111.327 41.5399 111.204 42.1047 110.958 42.6031C110.713 43.1015 110.357 43.5235 109.892 43.869C109.427 44.2146 108.872 44.4771 108.227 44.6565C107.583 44.8359 106.862 44.9256 106.064 44.9256C105.346 44.9256 104.639 44.8326 103.941 44.6465C103.243 44.4538 102.609 44.1648 102.037 43.7793C101.472 43.3939 101.02 42.9021 100.681 42.3041C100.343 41.706 100.173 40.9983 100.173 40.1809H103.173C103.173 40.6328 103.243 41.0149 103.383 41.3272C103.522 41.6395 103.718 41.8921 103.971 42.0848C104.23 42.2775 104.536 42.417 104.888 42.5034C105.247 42.5898 105.639 42.633 106.064 42.633C106.582 42.633 107.008 42.5599 107.34 42.4137C107.679 42.2675 107.928 42.0648 108.088 41.8057C108.254 41.5465 108.337 41.2541 108.337 40.9285ZM118.464 33.9409V35.9744H112.184V33.9409H118.464ZM113.74 31.2795H116.61V41.4767C116.61 41.7891 116.65 42.0283 116.73 42.1944C116.816 42.3606 116.943 42.4768 117.109 42.5433C117.275 42.6031 117.484 42.633 117.737 42.633C117.916 42.633 118.076 42.6264 118.215 42.6131C118.361 42.5931 118.484 42.5732 118.584 42.5533L118.594 44.6665C118.348 44.7462 118.082 44.8094 117.796 44.8559C117.511 44.9024 117.195 44.9256 116.85 44.9256C116.218 44.9256 115.667 44.8226 115.195 44.6166C114.73 44.404 114.371 44.0651 114.118 43.5999C113.866 43.1347 113.74 42.5234 113.74 41.7658V31.2795ZM125.92 42.2941V37.4895C125.92 37.144 125.864 36.8483 125.751 36.6024C125.638 36.3499 125.462 36.1538 125.223 36.0143C124.99 35.8747 124.688 35.8049 124.316 35.8049C123.997 35.8049 123.721 35.8614 123.488 35.9744C123.256 36.0807 123.076 36.2369 122.95 36.4429C122.824 36.6423 122.761 36.8782 122.761 37.1506H119.89C119.89 36.6921 119.996 36.2568 120.209 35.8448C120.421 35.4328 120.73 35.0706 121.136 34.7583C121.541 34.4393 122.023 34.1901 122.581 34.0107C123.146 33.8313 123.777 33.7416 124.475 33.7416C125.312 33.7416 126.057 33.8811 126.708 34.1602C127.359 34.4393 127.871 34.858 128.243 35.4162C128.622 35.9744 128.811 36.6722 128.811 37.5095V42.1246C128.811 42.7161 128.848 43.2012 128.921 43.58C128.994 43.9521 129.1 44.2777 129.24 44.5568V44.7263H126.339C126.199 44.4339 126.093 44.0684 126.02 43.6298C125.954 43.1846 125.92 42.7393 125.92 42.2941ZM126.299 38.1574L126.319 39.7822H124.714C124.335 39.7822 124.007 39.8254 123.727 39.9118C123.448 39.9981 123.219 40.1211 123.04 40.2806C122.86 40.4334 122.727 40.6128 122.641 40.8188C122.561 41.0248 122.521 41.2508 122.521 41.4967C122.521 41.7425 122.578 41.9652 122.691 42.1645C122.804 42.3572 122.967 42.5101 123.179 42.623C123.392 42.7294 123.641 42.7825 123.927 42.7825C124.359 42.7825 124.734 42.6961 125.053 42.5234C125.372 42.3506 125.618 42.1379 125.791 41.8854C125.97 41.6329 126.063 41.3937 126.07 41.1677L126.827 42.3838C126.721 42.6563 126.575 42.9387 126.389 43.2311C126.209 43.5235 125.98 43.7993 125.701 44.0584C125.422 44.311 125.086 44.5203 124.694 44.6864C124.302 44.8459 123.837 44.9256 123.299 44.9256C122.614 44.9256 121.993 44.7894 121.435 44.517C120.883 44.2379 120.445 43.8558 120.119 43.3706C119.8 42.8789 119.641 42.3207 119.641 41.696C119.641 41.1312 119.747 40.6294 119.96 40.1909C120.172 39.7523 120.485 39.3835 120.897 39.0844C121.315 38.7787 121.837 38.5495 122.461 38.3966C123.086 38.2371 123.81 38.1574 124.635 38.1574H126.299ZM133.895 36.2934V44.7263H131.024V33.9409H133.725L133.895 36.2934ZM137.144 33.8712L137.094 36.5326C136.955 36.5127 136.785 36.4961 136.586 36.4828C136.393 36.4628 136.217 36.4529 136.058 36.4529C135.652 36.4529 135.3 36.506 135.001 36.6124C134.709 36.712 134.463 36.8616 134.264 37.0609C134.071 37.2603 133.925 37.5028 133.825 37.7886C133.732 38.0743 133.679 38.3999 133.665 38.7654L133.087 38.586C133.087 37.8883 133.157 37.247 133.297 36.6622C133.436 36.0708 133.639 35.5557 133.905 35.1172C134.177 34.6786 134.509 34.3397 134.902 34.1004C135.294 33.8612 135.742 33.7416 136.247 33.7416C136.407 33.7416 136.569 33.7549 136.736 33.7814C136.902 33.8014 137.038 33.8313 137.144 33.8712ZM144.281 33.9409V35.9744H138.002V33.9409H144.281ZM139.557 31.2795H142.427V41.4767C142.427 41.7891 142.467 42.0283 142.547 42.1944C142.633 42.3606 142.76 42.4768 142.926 42.5433C143.092 42.6031 143.301 42.633 143.554 42.633C143.733 42.633 143.893 42.6264 144.032 42.6131C144.178 42.5931 144.301 42.5732 144.401 42.5533L144.411 44.6665C144.165 44.7462 143.899 44.8094 143.614 44.8559C143.328 44.9024 143.012 44.9256 142.667 44.9256C142.035 44.9256 141.484 44.8226 141.012 44.6166C140.547 44.404 140.188 44.0651 139.935 43.5999C139.683 43.1347 139.557 42.5234 139.557 41.7658V31.2795ZM150.88 44.9256C150.043 44.9256 149.292 44.7927 148.627 44.5269C147.963 44.2545 147.398 43.879 146.933 43.4005C146.474 42.9221 146.122 42.3672 145.876 41.7359C145.63 41.0979 145.507 40.4201 145.507 39.7024V39.3037C145.507 38.4863 145.624 37.7387 145.856 37.0609C146.089 36.3831 146.421 35.795 146.853 35.2966C147.292 34.7982 147.823 34.4161 148.448 34.1503C149.073 33.8778 149.777 33.7416 150.561 33.7416C151.325 33.7416 152.003 33.8678 152.595 34.1204C153.186 34.3729 153.681 34.7317 154.08 35.1969C154.485 35.6621 154.791 36.2203 154.997 36.8715C155.203 37.5161 155.306 38.2338 155.306 39.0246V40.2208H146.734V38.3069H152.485V38.0876C152.485 37.6889 152.412 37.3334 152.266 37.021C152.126 36.7021 151.914 36.4495 151.628 36.2635C151.342 36.0774 150.977 35.9844 150.531 35.9844C150.153 35.9844 149.827 36.0674 149.554 36.2336C149.282 36.3997 149.059 36.6323 148.887 36.9313C148.72 37.2304 148.594 37.5826 148.508 37.9879C148.428 38.3867 148.388 38.8252 148.388 39.3037V39.7024C148.388 40.1344 148.448 40.5331 148.568 40.8986C148.694 41.2641 148.87 41.5797 149.096 41.8455C149.328 42.1114 149.608 42.3174 149.933 42.4636C150.265 42.6098 150.641 42.6829 151.06 42.6829C151.578 42.6829 152.06 42.5832 152.505 42.3838C152.957 42.1778 153.346 41.8688 153.671 41.4568L155.067 42.9719C154.841 43.2975 154.532 43.6099 154.14 43.9089C153.754 44.208 153.289 44.4538 152.744 44.6465C152.199 44.8326 151.578 44.9256 150.88 44.9256ZM163.31 42.3738V29.4155H166.201V44.7263H163.599L163.31 42.3738ZM156.492 39.4632V39.2539C156.492 38.4298 156.585 37.6823 156.771 37.0111C156.957 36.3333 157.23 35.7518 157.589 35.2667C157.947 34.7816 158.389 34.4061 158.914 34.1403C159.439 33.8745 160.037 33.7416 160.709 33.7416C161.34 33.7416 161.891 33.8745 162.363 34.1403C162.842 34.4061 163.247 34.7849 163.579 35.2766C163.918 35.7618 164.191 36.3366 164.397 37.0011C164.603 37.659 164.752 38.38 164.845 39.1642V39.6227C164.752 40.3736 164.603 41.0714 164.397 41.716C164.191 42.3606 163.918 42.9254 163.579 43.4105C163.247 43.889 162.842 44.2611 162.363 44.5269C161.885 44.7927 161.327 44.9256 160.689 44.9256C160.017 44.9256 159.419 44.7894 158.894 44.517C158.376 44.2445 157.938 43.8624 157.579 43.3706C157.226 42.8789 156.957 42.3007 156.771 41.6362C156.585 40.9717 156.492 40.2473 156.492 39.4632ZM159.363 39.2539V39.4632C159.363 39.9084 159.396 40.3238 159.463 40.7092C159.536 41.0946 159.652 41.4369 159.811 41.7359C159.978 42.0283 160.19 42.2576 160.449 42.4237C160.715 42.5832 161.038 42.6629 161.416 42.6629C161.908 42.6629 162.313 42.5533 162.632 42.334C162.951 42.108 163.194 41.799 163.36 41.407C163.533 41.0149 163.633 40.563 163.659 40.0513V38.7455C163.639 38.3268 163.579 37.9514 163.48 37.6191C163.387 37.2802 163.247 36.9911 163.061 36.7519C162.882 36.5127 162.656 36.3266 162.383 36.1937C162.117 36.0608 161.802 35.9943 161.436 35.9943C161.064 35.9943 160.745 36.0807 160.479 36.2535C160.214 36.4196 159.998 36.6489 159.831 36.9413C159.672 37.2337 159.552 37.5792 159.473 37.978C159.399 38.37 159.363 38.7953 159.363 39.2539Z" fill="black"/>
<rect x="7.37012" y="1.3898" width="215.13" height="72.673" stroke="black"/>
</svg>
