<svg width="223" height="80" viewBox="0 0 223 80" fill="none" xmlns="http://www.w3.org/2000/svg">
<rect x="0.528436" y="6.2843" width="215.073" height="72.3957" fill="#00D1FF"/>
<rect x="0.528436" y="6.2843" width="215.073" height="72.3957" stroke="#010101" stroke-width="1.05687"/>
<rect x="7.37012" y="1.38989" width="215.13" height="72.673" fill="white"/>
<path d="M76.7483 42.3938V44.7263H69.0232V42.3938H76.7483ZM70 30.2129V44.7263H67.0096V30.2129H70ZM75.7416 36.124V38.3967H69.0232V36.124H75.7416ZM76.7384 30.2129V32.5554H69.0232V30.2129H76.7384ZM81.1243 36.2436V44.7263H78.2535V33.941H80.9449L81.1243 36.2436ZM80.7056 38.9549H79.9281C79.9281 38.1574 80.0311 37.4397 80.2371 36.8018C80.4431 36.1572 80.7322 35.6089 81.1043 35.1571C81.4765 34.6985 81.9184 34.3497 82.4301 34.1104C82.9484 33.8645 83.5266 33.7416 84.1645 33.7416C84.6696 33.7416 85.1314 33.8147 85.5501 33.9609C85.9687 34.1071 86.3276 34.3397 86.6266 34.6587C86.9323 34.9776 87.1649 35.3996 87.3244 35.9246C87.4905 36.4496 87.5736 37.0908 87.5736 37.8484V44.7263H84.6829V37.8384C84.6829 37.36 84.6164 36.9878 84.4835 36.722C84.3506 36.4562 84.1546 36.2702 83.8954 36.1638C83.6429 36.0509 83.3305 35.9944 82.9584 35.9944C82.573 35.9944 82.2374 36.0708 81.9516 36.2236C81.6725 36.3765 81.4399 36.5891 81.2539 36.8616C81.0744 37.1274 80.9382 37.4397 80.8452 37.7986C80.7521 38.1574 80.7056 38.5429 80.7056 38.9549ZM92.6273 36.2934V44.7263H89.7566V33.941H92.4579L92.6273 36.2934ZM95.8769 33.8712L95.827 36.5326C95.6875 36.5127 95.518 36.4961 95.3187 36.4828C95.126 36.4629 94.9499 36.4529 94.7904 36.4529C94.385 36.4529 94.0328 36.5061 93.7338 36.6124C93.4414 36.7121 93.1955 36.8616 92.9961 37.0609C92.8034 37.2603 92.6572 37.5029 92.5576 37.7886C92.4645 38.0744 92.4114 38.4 92.3981 38.7655L91.8199 38.586C91.8199 37.8883 91.8897 37.247 92.0292 36.6622C92.1688 36.0708 92.3715 35.5558 92.6373 35.1172C92.9098 34.6786 93.242 34.3397 93.6341 34.1005C94.0262 33.8612 94.4747 33.7416 94.9798 33.7416C95.1393 33.7416 95.3021 33.7549 95.4682 33.7815C95.6343 33.8014 95.7706 33.8313 95.8769 33.8712ZM96.475 39.4433V39.234C96.475 38.4432 96.5879 37.7155 96.8139 37.051C97.0398 36.3798 97.3688 35.7983 97.8007 35.3066C98.2327 34.8148 98.7643 34.4327 99.3956 34.1603C100.027 33.8812 100.751 33.7416 101.569 33.7416C102.386 33.7416 103.114 33.8812 103.752 34.1603C104.39 34.4327 104.924 34.8148 105.356 35.3066C105.795 35.7983 106.127 36.3798 106.353 37.051C106.579 37.7155 106.692 38.4432 106.692 39.234V39.4433C106.692 40.2274 106.579 40.9551 106.353 41.6263C106.127 42.2908 105.795 42.8723 105.356 43.3707C104.924 43.8624 104.393 44.2445 103.762 44.517C103.13 44.7894 102.406 44.9257 101.589 44.9257C100.771 44.9257 100.043 44.7894 99.4055 44.517C98.7742 44.2445 98.2393 43.8624 97.8007 43.3707C97.3688 42.8723 97.0398 42.2908 96.8139 41.6263C96.5879 40.9551 96.475 40.2274 96.475 39.4433ZM99.3457 39.234V39.4433C99.3457 39.8952 99.3856 40.3172 99.4654 40.7092C99.5451 41.1013 99.6714 41.4469 99.8441 41.7459C100.024 42.0383 100.256 42.2676 100.542 42.4337C100.828 42.5998 101.177 42.6829 101.589 42.6829C101.987 42.6829 102.329 42.5998 102.615 42.4337C102.901 42.2676 103.13 42.0383 103.303 41.7459C103.476 41.4469 103.602 41.1013 103.682 40.7092C103.768 40.3172 103.811 39.8952 103.811 39.4433V39.234C103.811 38.7954 103.768 38.3834 103.682 37.9979C103.602 37.6059 103.472 37.2603 103.293 36.9613C103.12 36.6556 102.891 36.4163 102.605 36.2436C102.32 36.0708 101.974 35.9844 101.569 35.9844C101.163 35.9844 100.818 36.0708 100.532 36.2436C100.253 36.4163 100.024 36.6556 99.8441 36.9613C99.6714 37.2603 99.5451 37.6059 99.4654 37.9979C99.3856 38.3834 99.3457 38.7954 99.3457 39.234ZM111.487 29.4155V44.7263H108.606V29.4155H111.487ZM116.889 29.4155V44.7263H114.009V29.4155H116.889ZM136.337 30.2129V44.7263H133.347L127.515 34.9976V44.7263H124.525V30.2129H127.515L133.356 39.9517V30.2129H136.337ZM138.301 39.4433V39.234C138.301 38.4432 138.414 37.7155 138.64 37.051C138.865 36.3798 139.194 35.7983 139.626 35.3066C140.058 34.8148 140.59 34.4327 141.221 34.1603C141.853 33.8812 142.577 33.7416 143.394 33.7416C144.212 33.7416 144.939 33.8812 145.577 34.1603C146.215 34.4327 146.75 34.8148 147.182 35.3066C147.621 35.7983 147.953 36.3798 148.179 37.051C148.405 37.7155 148.518 38.4432 148.518 39.234V39.4433C148.518 40.2274 148.405 40.9551 148.179 41.6263C147.953 42.2908 147.621 42.8723 147.182 43.3707C146.75 43.8624 146.218 44.2445 145.587 44.517C144.956 44.7894 144.232 44.9257 143.414 44.9257C142.597 44.9257 141.869 44.7894 141.231 44.517C140.6 44.2445 140.065 43.8624 139.626 43.3707C139.194 42.8723 138.865 42.2908 138.64 41.6263C138.414 40.9551 138.301 40.2274 138.301 39.4433ZM141.171 39.234V39.4433C141.171 39.8952 141.211 40.3172 141.291 40.7092C141.371 41.1013 141.497 41.4469 141.67 41.7459C141.849 42.0383 142.082 42.2676 142.368 42.4337C142.653 42.5998 143.002 42.6829 143.414 42.6829C143.813 42.6829 144.155 42.5998 144.441 42.4337C144.727 42.2676 144.956 42.0383 145.129 41.7459C145.301 41.4469 145.428 41.1013 145.507 40.7092C145.594 40.3172 145.637 39.8952 145.637 39.4433V39.234C145.637 38.7954 145.594 38.3834 145.507 37.9979C145.428 37.6059 145.298 37.2603 145.119 36.9613C144.946 36.6556 144.717 36.4163 144.431 36.2436C144.145 36.0708 143.8 35.9844 143.394 35.9844C142.989 35.9844 142.643 36.0708 142.358 36.2436C142.078 36.4163 141.849 36.6556 141.67 36.9613C141.497 37.2603 141.371 37.6059 141.291 37.9979C141.211 38.3834 141.171 38.7954 141.171 39.234ZM153.362 41.9353L155.605 33.941H157.429L156.841 37.0809L154.598 44.7263H153.073L153.362 41.9353ZM152.226 33.941L153.831 41.9253L153.98 44.7263H152.186L149.455 33.941H152.226ZM159.483 41.7957L161.048 33.941H163.829L161.097 44.7263H159.313L159.483 41.7957ZM157.678 33.941L159.911 41.8755L160.22 44.7263H158.685L156.442 37.0908L155.874 33.941H157.678Z" fill="black"/>
<rect x="7.37012" y="1.38989" width="215.13" height="72.673" stroke="black"/>
</svg>
