<svg width="223" height="80" viewBox="0 0 223 80" fill="none" xmlns="http://www.w3.org/2000/svg">
<rect x="0.528436" y="6.28436" width="215.073" height="72.3957" stroke="#010101" stroke-width="1.05687"/>
<rect width="216.13" height="73.673" transform="translate(6.87012 0.889771)" fill="#010101"/>
<path d="M77.6953 30.2129H83.1079C84.2177 30.2129 85.1713 30.379 85.9687 30.7113C86.7728 31.0435 87.3908 31.5353 87.8228 32.1865C88.2547 32.8378 88.4707 33.6385 88.4707 34.5888C88.4707 35.3663 88.3378 36.0342 88.072 36.5924C87.8128 37.144 87.444 37.6058 86.9655 37.9779C86.4937 38.3434 85.9388 38.6358 85.3009 38.8551L84.3539 39.3535H79.649L79.6291 37.021H83.1278C83.6528 37.021 84.0881 36.928 84.4337 36.7419C84.7792 36.5558 85.0384 36.2967 85.2112 35.9644C85.3906 35.6321 85.4803 35.2467 85.4803 34.8081C85.4803 34.3429 85.3939 33.9409 85.2211 33.602C85.0483 33.2631 84.7859 33.0039 84.4337 32.8245C84.0815 32.6451 83.6395 32.5554 83.1079 32.5554H80.6857V44.7263H77.6953V30.2129ZM85.8092 44.7263L82.4999 38.257L85.6597 38.2371L89.009 44.5867V44.7263H85.8092ZM95.5579 44.9256C94.7206 44.9256 93.9697 44.7927 93.3052 44.5269C92.6406 44.2544 92.0758 43.879 91.6106 43.4005C91.1521 42.9221 90.7999 42.3672 90.554 41.7359C90.3081 41.0979 90.1852 40.4201 90.1852 39.7024V39.3037C90.1852 38.4863 90.3015 37.7387 90.5341 37.0609C90.7666 36.3831 91.0989 35.795 91.5309 35.2966C91.9694 34.7982 92.5011 34.416 93.1257 34.1502C93.7504 33.8778 94.4548 33.7415 95.2389 33.7415C96.0031 33.7415 96.681 33.8678 97.2724 34.1203C97.8638 34.3729 98.3589 34.7317 98.7576 35.1969C99.163 35.662 99.4687 36.2203 99.6747 36.8715C99.8807 37.5161 99.9837 38.2338 99.9837 39.0246V40.2207H91.4112V38.3069H97.1628V38.0876C97.1628 37.6889 97.0897 37.3333 96.9435 37.021C96.8039 36.702 96.5913 36.4495 96.3055 36.2634C96.0198 36.0774 95.6543 35.9843 95.209 35.9843C94.8303 35.9843 94.5046 36.0674 94.2322 36.2335C93.9597 36.3997 93.7371 36.6323 93.5643 36.9313C93.3982 37.2303 93.2719 37.5825 93.1855 37.9879C93.1058 38.3866 93.0659 38.8252 93.0659 39.3037V39.7024C93.0659 40.1343 93.1257 40.5331 93.2453 40.8986C93.3716 41.264 93.5477 41.5797 93.7736 41.8455C94.0062 42.1113 94.2853 42.3173 94.611 42.4635C94.9432 42.6097 95.3187 42.6828 95.7373 42.6828C96.2557 42.6828 96.7375 42.5831 97.1827 42.3838C97.6346 42.1778 98.0233 41.8688 98.3489 41.4568L99.7445 42.9719C99.5185 43.2975 99.2095 43.6098 98.8174 43.9089C98.432 44.2079 97.9668 44.4538 97.4219 44.6465C96.877 44.8326 96.2557 44.9256 95.5579 44.9256ZM108.447 33.9409H111.048V44.3674C111.048 45.3509 110.829 46.1849 110.39 46.8694C109.958 47.5605 109.354 48.0821 108.576 48.4343C107.799 48.7932 106.895 48.9726 105.865 48.9726C105.413 48.9726 104.934 48.9128 104.429 48.7932C103.931 48.6736 103.453 48.4875 102.994 48.235C102.542 47.9825 102.163 47.6635 101.858 47.2781L103.124 45.5835C103.456 45.9689 103.841 46.268 104.28 46.4806C104.718 46.6999 105.204 46.8096 105.735 46.8096C106.254 46.8096 106.692 46.7132 107.051 46.5205C107.41 46.3344 107.686 46.0586 107.878 45.6932C108.071 45.3343 108.167 44.899 108.167 44.3873V36.4329L108.447 33.9409ZM101.19 39.4632V39.2538C101.19 38.4298 101.289 37.6822 101.489 37.011C101.695 36.3332 101.984 35.7518 102.356 35.2666C102.735 34.7815 103.193 34.4061 103.732 34.1403C104.27 33.8745 104.878 33.7415 105.556 33.7415C106.273 33.7415 106.875 33.8745 107.36 34.1403C107.845 34.4061 108.244 34.7849 108.556 35.2766C108.868 35.7617 109.111 36.3365 109.284 37.0011C109.463 37.659 109.603 38.38 109.702 39.1641V39.6227C109.603 40.3736 109.453 41.0713 109.254 41.7159C109.055 42.3605 108.792 42.9254 108.466 43.4105C108.141 43.8889 107.735 44.2611 107.25 44.5269C106.772 44.7927 106.2 44.9256 105.536 44.9256C104.871 44.9256 104.27 44.7894 103.732 44.5169C103.2 44.2445 102.745 43.8624 102.366 43.3706C101.987 42.8789 101.695 42.3007 101.489 41.6362C101.289 40.9717 101.19 40.2473 101.19 39.4632ZM104.061 39.2538V39.4632C104.061 39.9084 104.104 40.3237 104.19 40.7092C104.277 41.0946 104.409 41.4368 104.589 41.7359C104.775 42.0283 105.004 42.2575 105.277 42.4237C105.556 42.5831 105.885 42.6629 106.264 42.6629C106.788 42.6629 107.217 42.5532 107.549 42.3339C107.882 42.108 108.131 41.799 108.297 41.4069C108.463 41.0148 108.559 40.563 108.586 40.0513V38.7455C108.573 38.3268 108.516 37.9514 108.417 37.6191C108.317 37.2802 108.177 36.9911 107.998 36.7519C107.819 36.5126 107.586 36.3266 107.3 36.1937C107.014 36.0608 106.676 35.9943 106.283 35.9943C105.905 35.9943 105.576 36.0807 105.297 36.2535C105.024 36.4196 104.795 36.6489 104.609 36.9413C104.429 37.2337 104.293 37.5792 104.2 37.9779C104.107 38.37 104.061 38.7953 104.061 39.2538ZM116.311 33.9409V44.7263H113.43V33.9409H116.311ZM113.251 31.1299C113.251 30.7113 113.397 30.3657 113.69 30.0933C113.982 29.8208 114.374 29.6846 114.866 29.6846C115.351 29.6846 115.74 29.8208 116.032 30.0933C116.331 30.3657 116.481 30.7113 116.481 31.1299C116.481 31.5486 116.331 31.8941 116.032 32.1666C115.74 32.4391 115.351 32.5753 114.866 32.5753C114.374 32.5753 113.982 32.4391 113.69 32.1666C113.397 31.8941 113.251 31.5486 113.251 31.1299ZM124.515 41.7458C124.515 41.5398 124.455 41.3538 124.335 41.1876C124.216 41.0215 123.993 40.8687 123.668 40.7291C123.349 40.5829 122.887 40.45 122.282 40.3304C121.737 40.2108 121.229 40.0612 120.757 39.8818C120.292 39.6958 119.886 39.4731 119.541 39.214C119.202 38.9548 118.936 38.6491 118.743 38.2969C118.551 37.9381 118.454 37.5294 118.454 37.0709C118.454 36.619 118.551 36.1937 118.743 35.795C118.943 35.3962 119.225 35.044 119.591 34.7383C119.963 34.426 120.415 34.1835 120.946 34.0107C121.485 33.8313 122.089 33.7415 122.761 33.7415C123.698 33.7415 124.502 33.8911 125.173 34.1901C125.851 34.4891 126.369 34.9012 126.728 35.4261C127.093 35.9445 127.276 36.5359 127.276 37.2004H124.405C124.405 36.9213 124.345 36.6721 124.226 36.4528C124.113 36.2269 123.933 36.0508 123.688 35.9245C123.448 35.7916 123.136 35.7252 122.751 35.7252C122.432 35.7252 122.156 35.7817 121.923 35.8946C121.691 36.001 121.511 36.1472 121.385 36.3332C121.265 36.5126 121.206 36.712 121.206 36.9313C121.206 37.0974 121.239 37.247 121.305 37.3799C121.378 37.5061 121.495 37.6224 121.654 37.7287C121.814 37.8351 122.02 37.9347 122.272 38.0278C122.531 38.1142 122.85 38.1939 123.229 38.267C124.007 38.4265 124.701 38.6358 125.312 38.895C125.924 39.1475 126.409 39.4931 126.768 39.9317C127.126 40.3636 127.306 40.9318 127.306 41.6362C127.306 42.1146 127.2 42.5532 126.987 42.952C126.774 43.3507 126.469 43.6996 126.07 43.9986C125.671 44.291 125.193 44.5203 124.634 44.6864C124.083 44.8459 123.462 44.9256 122.77 44.9256C121.767 44.9256 120.916 44.7462 120.219 44.3873C119.528 44.0285 119.003 43.5733 118.644 43.0217C118.292 42.4635 118.115 41.892 118.115 41.3072H120.837C120.85 41.6993 120.95 42.015 121.136 42.2542C121.328 42.4934 121.571 42.6662 121.863 42.7725C122.162 42.8789 122.485 42.932 122.83 42.932C123.202 42.932 123.511 42.8822 123.757 42.7825C124.003 42.6762 124.189 42.5366 124.316 42.3638C124.448 42.1844 124.515 41.9784 124.515 41.7458ZM134.453 33.9409V35.9744H128.173V33.9409H134.453ZM129.728 31.2795H132.599V41.4767C132.599 41.789 132.639 42.0283 132.719 42.1944C132.805 42.3605 132.931 42.4768 133.097 42.5433C133.263 42.6031 133.473 42.633 133.725 42.633C133.905 42.633 134.064 42.6263 134.204 42.613C134.35 42.5931 134.473 42.5732 134.573 42.5532L134.583 44.6664C134.337 44.7462 134.071 44.8093 133.785 44.8558C133.499 44.9024 133.184 44.9256 132.838 44.9256C132.207 44.9256 131.655 44.8226 131.183 44.6166C130.718 44.404 130.359 44.065 130.107 43.5999C129.854 43.1347 129.728 42.5233 129.728 41.7658V31.2795ZM141.052 44.9256C140.214 44.9256 139.464 44.7927 138.799 44.5269C138.134 44.2544 137.57 43.879 137.104 43.4005C136.646 42.9221 136.294 42.3672 136.048 41.7359C135.802 41.0979 135.679 40.4201 135.679 39.7024V39.3037C135.679 38.4863 135.795 37.7387 136.028 37.0609C136.26 36.3831 136.593 35.795 137.025 35.2966C137.463 34.7982 137.995 34.416 138.62 34.1502C139.244 33.8778 139.949 33.7415 140.733 33.7415C141.497 33.7415 142.175 33.8678 142.766 34.1203C143.358 34.3729 143.853 34.7317 144.251 35.1969C144.657 35.662 144.963 36.2203 145.169 36.8715C145.375 37.5161 145.478 38.2338 145.478 39.0246V40.2207H136.905V38.3069H142.657V38.0876C142.657 37.6889 142.584 37.3333 142.437 37.021C142.298 36.702 142.085 36.4495 141.799 36.2634C141.514 36.0774 141.148 35.9843 140.703 35.9843C140.324 35.9843 139.998 36.0674 139.726 36.2335C139.454 36.3997 139.231 36.6323 139.058 36.9313C138.892 37.2303 138.766 37.5825 138.679 37.9879C138.6 38.3866 138.56 38.8252 138.56 39.3037V39.7024C138.56 40.1343 138.62 40.5331 138.739 40.8986C138.865 41.264 139.042 41.5797 139.267 41.8455C139.5 42.1113 139.779 42.3173 140.105 42.4635C140.437 42.6097 140.813 42.6828 141.231 42.6828C141.75 42.6828 142.231 42.5831 142.677 42.3838C143.128 42.1778 143.517 41.8688 143.843 41.4568L145.238 42.9719C145.012 43.2975 144.703 43.6098 144.311 43.9089C143.926 44.2079 143.461 44.4538 142.916 44.6465C142.371 44.8326 141.75 44.9256 141.052 44.9256ZM149.983 36.2933V44.7263H147.112V33.9409H149.814L149.983 36.2933ZM153.233 33.8711L153.183 36.5326C153.043 36.5126 152.874 36.496 152.674 36.4827C152.482 36.4628 152.306 36.4528 152.146 36.4528C151.741 36.4528 151.389 36.506 151.09 36.6123C150.797 36.712 150.551 36.8615 150.352 37.0609C150.159 37.2602 150.013 37.5028 149.913 37.7885C149.82 38.0743 149.767 38.3999 149.754 38.7654L149.176 38.586C149.176 37.8882 149.245 37.247 149.385 36.6622C149.525 36.0707 149.727 35.5557 149.993 35.1171C150.265 34.6785 150.598 34.3396 150.99 34.1004C151.382 33.8612 151.83 33.7415 152.336 33.7415C152.495 33.7415 152.658 33.7548 152.824 33.7814C152.99 33.8014 153.126 33.8313 153.233 33.8711Z" fill="white"/>
</svg>
