<svg width="139" height="34" viewBox="0 0 139 34" fill="none" xmlns="http://www.w3.org/2000/svg">
<circle cx="13" cy="17" r="13" fill="#FEDC98"/>
<path d="M7.03503 17.3487L10.8801 21.7922L20.3769 12.7024" stroke="black" stroke-width="1.71053" stroke-linecap="round" stroke-linejoin="round"/>
<path d="M68.248 14.424C67.8 15.288 67.592 16.28 67.592 17.4C67.592 18.552 67.8 19.544 68.248 20.408C68.696 21.272 69.32 21.928 70.136 22.392C70.952 22.872 71.912 23.096 73 23.096C73.848 23.096 74.616 22.936 75.288 22.616C75.96 22.296 76.504 21.848 76.92 21.256C77.336 20.68 77.608 19.992 77.736 19.192H75.896C75.704 19.912 75.352 20.472 74.84 20.872C74.328 21.288 73.688 21.48 72.92 21.48C72.216 21.48 71.608 21.32 71.096 20.968C70.568 20.616 70.168 20.136 69.896 19.512C69.608 18.904 69.48 18.2 69.48 17.4C69.48 16.6 69.608 15.896 69.896 15.288C70.168 14.68 70.568 14.2 71.096 13.848C71.608 13.496 72.216 13.32 72.92 13.32C73.688 13.32 74.328 13.528 74.856 13.928C75.368 14.344 75.72 14.904 75.912 15.608H77.752C77.624 14.84 77.352 14.152 76.936 13.56C76.504 12.968 75.944 12.504 75.272 12.184C74.6 11.864 73.832 11.704 73 11.704C71.912 11.704 70.952 11.944 70.136 12.424C69.32 12.904 68.696 13.56 68.248 14.424ZM83.9929 14.808H83.6089C82.9689 14.808 82.4729 14.92 82.1049 15.144C81.7209 15.368 81.4169 15.656 81.1929 16.04L81.0009 14.808H79.4649V23H81.1929V18.888C81.1929 18.184 81.3529 17.592 81.6729 17.128C81.9929 16.664 82.5049 16.424 83.2249 16.424H83.9929V14.808ZM85.2112 16.712C84.8752 17.352 84.7152 18.088 84.7152 18.92C84.7152 19.752 84.8752 20.488 85.2272 21.112C85.5792 21.752 86.0592 22.232 86.6992 22.584C87.3392 22.936 88.0752 23.096 88.9392 23.096C89.9152 23.096 90.7312 22.84 91.3872 22.296C92.0432 21.768 92.4432 21.08 92.6032 20.248H90.8752C90.7472 20.712 90.5072 21.064 90.1552 21.32C89.7872 21.576 89.3392 21.688 88.8112 21.688C88.1392 21.688 87.5952 21.48 87.1952 21.064C86.7792 20.648 86.5552 20.088 86.5232 19.368V19.272H92.6993C92.7312 19.048 92.7472 18.84 92.7472 18.616C92.7312 17.832 92.5553 17.144 92.2032 16.552C91.8512 15.976 91.3872 15.512 90.7792 15.192C90.1712 14.872 89.4832 14.712 88.6992 14.712C87.9152 14.712 87.2272 14.888 86.6192 15.24C86.0112 15.592 85.5472 16.072 85.2112 16.712ZM90.9872 18.008H86.5872C86.6512 17.432 86.8752 16.984 87.2912 16.632C87.7072 16.28 88.1872 16.104 88.7632 16.104C89.3712 16.104 89.8672 16.28 90.2672 16.616C90.6672 16.952 90.9072 17.416 90.9872 18.008ZM102.304 21.496H101.968C101.6 21.496 101.424 21.304 101.424 20.92V17.688C101.424 16.728 101.12 15.992 100.528 15.48C99.9202 14.968 99.0722 14.712 97.9842 14.712C96.9442 14.712 96.1122 14.952 95.4722 15.4C94.8322 15.848 94.4642 16.488 94.3842 17.304H96.0802C96.1442 16.952 96.3362 16.664 96.6562 16.44C96.9762 16.216 97.3922 16.104 97.9042 16.104C98.4642 16.104 98.9122 16.248 99.2322 16.504C99.5522 16.76 99.7122 17.128 99.7122 17.576V18.072H97.6482C96.4962 18.072 95.6322 18.312 95.0402 18.76C94.4322 19.208 94.1442 19.864 94.1442 20.696C94.1442 21.448 94.4162 22.04 94.9762 22.456C95.5202 22.888 96.2562 23.096 97.1842 23.096C98.3682 23.096 99.2642 22.632 99.8882 21.688C99.8882 22.12 100 22.44 100.24 22.664C100.464 22.888 100.848 23 101.392 23H102.304V21.496ZM99.7122 19.352V19.64C99.6962 20.28 99.4882 20.792 99.0882 21.176C98.6882 21.56 98.1282 21.752 97.4242 21.752C96.9442 21.752 96.5762 21.656 96.3042 21.432C96.0322 21.224 95.9042 20.936 95.9042 20.584C95.9042 20.184 96.0482 19.88 96.3362 19.672C96.6242 19.464 97.0242 19.352 97.5682 19.352H99.7122ZM104.093 16.328V20.776C104.093 21.544 104.269 22.104 104.621 22.456C104.973 22.824 105.549 23 106.333 23H107.997V21.48H106.685C106.365 21.48 106.157 21.416 106.029 21.288C105.901 21.16 105.837 20.92 105.837 20.6V16.328H107.805V14.808H105.837V12.52H104.093V14.808H102.669V16.328H104.093ZM110.861 11.832C110.653 11.64 110.397 11.528 110.109 11.528C109.805 11.528 109.549 11.64 109.357 11.832C109.149 12.024 109.053 12.28 109.053 12.568C109.053 12.872 109.149 13.128 109.357 13.32C109.549 13.512 109.805 13.608 110.109 13.608C110.397 13.608 110.653 13.512 110.861 13.32C111.053 13.128 111.165 12.872 111.165 12.568C111.165 12.28 111.053 12.024 110.861 11.832ZM109.245 14.808V23H110.973V14.808H109.245ZM112.171 14.808L115.195 23H117.307L120.331 14.808H118.507L116.283 21.144L114.027 14.808H112.171ZM123.142 11.832C122.934 11.64 122.678 11.528 122.39 11.528C122.086 11.528 121.83 11.64 121.638 11.832C121.43 12.024 121.334 12.28 121.334 12.568C121.334 12.872 121.43 13.128 121.638 13.32C121.83 13.512 122.086 13.608 122.39 13.608C122.678 13.608 122.934 13.512 123.142 13.32C123.334 13.128 123.446 12.872 123.446 12.568C123.446 12.28 123.334 12.024 123.142 11.832ZM121.526 14.808V23H123.254V14.808H121.526ZM125.795 16.328V20.776C125.795 21.544 125.971 22.104 126.323 22.456C126.675 22.824 127.251 23 128.035 23H129.699V21.48H128.387C128.067 21.48 127.859 21.416 127.731 21.288C127.603 21.16 127.539 20.92 127.539 20.6V16.328H129.507V14.808H127.539V12.52H125.795V14.808H124.371V16.328H125.795ZM131.971 14.808H130.131L133.331 23.064L132.995 23.848C132.851 24.2 132.723 24.44 132.595 24.536C132.467 24.632 132.227 24.68 131.907 24.68H130.691V26.2H132.547C132.931 26.2 133.251 26.136 133.491 26.008C133.715 25.88 133.923 25.672 134.083 25.416C134.243 25.16 134.419 24.776 134.611 24.28L138.323 14.808H136.483L134.259 21.128L131.971 14.808Z" fill="black"/>
</svg>
