<svg width="163" height="34" viewBox="0 0 163 34" fill="none" xmlns="http://www.w3.org/2000/svg">
<circle cx="13" cy="18" r="13" fill="#FEDC98"/>
<path d="M7.03503 18.3487L10.8801 22.7922L20.3769 13.7024" stroke="black" stroke-width="1.71053" stroke-linecap="round" stroke-linejoin="round"/>
<path d="M44.248 14.424C43.8 15.288 43.592 16.28 43.592 17.4C43.592 18.552 43.8 19.544 44.248 20.408C44.696 21.272 45.32 21.928 46.136 22.392C46.952 22.872 47.912 23.096 49 23.096C49.848 23.096 50.616 22.936 51.288 22.616C51.96 22.296 52.504 21.848 52.92 21.256C53.336 20.68 53.608 19.992 53.736 19.192H51.896C51.704 19.912 51.352 20.472 50.84 20.872C50.328 21.288 49.688 21.48 48.92 21.48C48.216 21.48 47.608 21.32 47.096 20.968C46.568 20.616 46.168 20.136 45.896 19.512C45.608 18.904 45.48 18.2 45.48 17.4C45.48 16.6 45.608 15.896 45.896 15.288C46.168 14.68 46.568 14.2 47.096 13.848C47.608 13.496 48.216 13.32 48.92 13.32C49.688 13.32 50.328 13.528 50.856 13.928C51.368 14.344 51.72 14.904 51.912 15.608H53.752C53.624 14.84 53.352 14.152 52.936 13.56C52.504 12.968 51.944 12.504 51.272 12.184C50.6 11.864 49.832 11.704 49 11.704C47.912 11.704 46.952 11.944 46.136 12.424C45.32 12.904 44.696 13.56 44.248 14.424ZM57.1449 22.584C57.7849 22.936 58.5049 23.096 59.3369 23.096C60.1529 23.096 60.8729 22.936 61.5129 22.584C62.1529 22.232 62.6329 21.752 62.9849 21.112C63.3369 20.472 63.5129 19.736 63.5129 18.904C63.5129 18.088 63.3369 17.368 62.9849 16.728C62.6329 16.088 62.1529 15.592 61.5129 15.24C60.8729 14.888 60.1529 14.712 59.3369 14.712C58.5049 14.712 57.7849 14.888 57.1449 15.24C56.5049 15.592 56.0249 16.088 55.6729 16.728C55.3209 17.368 55.1609 18.088 55.1609 18.904C55.1609 19.736 55.3209 20.472 55.6729 21.112C56.0249 21.752 56.5049 22.232 57.1449 22.584ZM61.0809 20.872C60.6329 21.384 60.0569 21.624 59.3369 21.624C58.6009 21.624 58.0249 21.384 57.5929 20.872C57.1449 20.36 56.9369 19.704 56.9369 18.904C56.9369 18.104 57.1449 17.464 57.5929 16.952C58.0249 16.44 58.6009 16.184 59.3369 16.184C60.0569 16.184 60.6329 16.44 61.0809 16.952C61.5289 17.464 61.7529 18.104 61.7529 18.904C61.7529 19.704 61.5289 20.36 61.0809 20.872ZM76.8704 15.592C76.2944 15.016 75.5744 14.712 74.6784 14.712C74.0064 14.712 73.4464 14.856 72.9824 15.112C72.5024 15.368 72.1344 15.736 71.8464 16.2C71.6064 15.704 71.2704 15.336 70.8384 15.08C70.3904 14.84 69.8944 14.712 69.3184 14.712C68.2944 14.728 67.4944 15.112 66.9184 15.88L66.7264 14.808H65.2224V23H66.9504V18.616C66.9504 17.88 67.1104 17.304 67.4624 16.856C67.8144 16.424 68.2784 16.2 68.8704 16.2C69.4304 16.2 69.8624 16.392 70.1504 16.76C70.4384 17.128 70.5984 17.672 70.5984 18.392V23H72.3424V18.568C72.3424 17.832 72.5024 17.256 72.8544 16.84C73.2064 16.424 73.6704 16.2 74.2784 16.2C74.8384 16.2 75.2704 16.392 75.5584 16.76C75.8464 17.144 75.9904 17.688 75.9904 18.392V23H77.7184V18.376C77.7184 17.096 77.4304 16.168 76.8704 15.592ZM91.2529 15.592C90.6769 15.016 89.9569 14.712 89.0609 14.712C88.3889 14.712 87.8289 14.856 87.3649 15.112C86.8849 15.368 86.5169 15.736 86.2289 16.2C85.9889 15.704 85.6529 15.336 85.2209 15.08C84.7729 14.84 84.2769 14.712 83.7009 14.712C82.6769 14.728 81.8769 15.112 81.3009 15.88L81.1089 14.808H79.6049V23H81.3329V18.616C81.3329 17.88 81.4929 17.304 81.8449 16.856C82.1969 16.424 82.6609 16.2 83.2529 16.2C83.8129 16.2 84.2449 16.392 84.5329 16.76C84.8209 17.128 84.9809 17.672 84.9809 18.392V23H86.7249V18.568C86.7249 17.832 86.8849 17.256 87.2369 16.84C87.5889 16.424 88.0529 16.2 88.6609 16.2C89.2209 16.2 89.6529 16.392 89.9409 16.76C90.2289 17.144 90.3729 17.688 90.3729 18.392V23H92.1009V18.376C92.1009 17.096 91.8129 16.168 91.2529 15.592ZM101.331 14.808H99.6034V18.872C99.6034 19.72 99.4114 20.392 99.0434 20.872C98.6594 21.352 98.1474 21.592 97.4914 21.592C96.8514 21.592 96.3874 21.384 96.0674 20.968C95.7474 20.552 95.5874 19.944 95.5874 19.144V14.808H93.8594V19.32C93.8594 20.648 94.1474 21.608 94.7554 22.2C95.3474 22.808 96.1314 23.096 97.0914 23.096C98.1474 23.096 98.9954 22.728 99.6194 21.96L99.8114 23H101.331V14.808ZM110.042 15.608C109.434 15.016 108.634 14.712 107.674 14.712C106.538 14.712 105.658 15.112 105.05 15.88L104.858 14.808H103.354V23H105.082V18.872C105.082 18.04 105.274 17.4 105.658 16.92C106.042 16.44 106.586 16.2 107.274 16.2C107.914 16.2 108.394 16.408 108.73 16.808C109.05 17.224 109.226 17.816 109.226 18.584V23H110.97V18.488C110.97 17.176 110.65 16.216 110.042 15.608ZM114.478 11.832C114.27 11.64 114.014 11.528 113.726 11.528C113.422 11.528 113.166 11.64 112.974 11.832C112.766 12.024 112.67 12.28 112.67 12.568C112.67 12.872 112.766 13.128 112.974 13.32C113.166 13.512 113.422 13.608 113.726 13.608C114.014 13.608 114.27 13.512 114.478 13.32C114.67 13.128 114.782 12.872 114.782 12.568C114.782 12.28 114.67 12.024 114.478 11.832ZM112.862 14.808V23H114.59V14.808H112.862ZM122.924 22.296C123.58 21.752 123.996 21.016 124.156 20.056H122.396C122.284 20.536 122.06 20.92 121.708 21.208C121.356 21.496 120.908 21.624 120.38 21.624C119.676 21.624 119.116 21.384 118.7 20.872C118.284 20.36 118.076 19.704 118.076 18.888C118.076 18.088 118.284 17.448 118.7 16.936C119.116 16.44 119.676 16.184 120.38 16.184C120.892 16.184 121.324 16.328 121.676 16.6C122.028 16.888 122.252 17.256 122.38 17.72H124.156C123.996 16.792 123.58 16.072 122.94 15.528C122.284 14.984 121.452 14.712 120.428 14.712C119.596 14.712 118.876 14.888 118.252 15.24C117.628 15.592 117.148 16.072 116.812 16.696C116.46 17.336 116.3 18.056 116.3 18.888C116.3 19.72 116.46 20.456 116.796 21.096C117.132 21.736 117.612 22.232 118.236 22.584C118.844 22.936 119.564 23.096 120.38 23.096C121.404 23.096 122.252 22.84 122.924 22.296ZM133.701 21.496H133.365C132.997 21.496 132.821 21.304 132.821 20.92V17.688C132.821 16.728 132.517 15.992 131.925 15.48C131.317 14.968 130.469 14.712 129.381 14.712C128.341 14.712 127.509 14.952 126.869 15.4C126.229 15.848 125.861 16.488 125.781 17.304H127.477C127.541 16.952 127.733 16.664 128.053 16.44C128.373 16.216 128.789 16.104 129.301 16.104C129.861 16.104 130.309 16.248 130.629 16.504C130.949 16.76 131.109 17.128 131.109 17.576V18.072H129.045C127.893 18.072 127.029 18.312 126.437 18.76C125.829 19.208 125.541 19.864 125.541 20.696C125.541 21.448 125.813 22.04 126.373 22.456C126.917 22.888 127.653 23.096 128.581 23.096C129.765 23.096 130.661 22.632 131.285 21.688C131.285 22.12 131.397 22.44 131.637 22.664C131.861 22.888 132.245 23 132.789 23H133.701V21.496ZM131.109 19.352V19.64C131.093 20.28 130.885 20.792 130.485 21.176C130.085 21.56 129.525 21.752 128.821 21.752C128.341 21.752 127.973 21.656 127.701 21.432C127.429 21.224 127.301 20.936 127.301 20.584C127.301 20.184 127.445 19.88 127.733 19.672C128.021 19.464 128.421 19.352 128.965 19.352H131.109ZM135.49 16.328V20.776C135.49 21.544 135.666 22.104 136.018 22.456C136.37 22.824 136.946 23 137.73 23H139.394V21.48H138.082C137.762 21.48 137.554 21.416 137.426 21.288C137.298 21.16 137.234 20.92 137.234 20.6V16.328H139.202V14.808H137.234V12.52H135.49V14.808H134.066V16.328H135.49ZM142.258 11.832C142.05 11.64 141.794 11.528 141.506 11.528C141.202 11.528 140.946 11.64 140.754 11.832C140.546 12.024 140.45 12.28 140.45 12.568C140.45 12.872 140.546 13.128 140.754 13.32C140.946 13.512 141.202 13.608 141.506 13.608C141.794 13.608 142.05 13.512 142.258 13.32C142.45 13.128 142.562 12.872 142.562 12.568C142.562 12.28 142.45 12.024 142.258 11.832ZM140.642 14.808V23H142.37V14.808H140.642ZM146.064 22.584C146.704 22.936 147.424 23.096 148.256 23.096C149.072 23.096 149.792 22.936 150.432 22.584C151.072 22.232 151.552 21.752 151.904 21.112C152.256 20.472 152.432 19.736 152.432 18.904C152.432 18.088 152.256 17.368 151.904 16.728C151.552 16.088 151.072 15.592 150.432 15.24C149.792 14.888 149.072 14.712 148.256 14.712C147.424 14.712 146.704 14.888 146.064 15.24C145.424 15.592 144.944 16.088 144.592 16.728C144.24 17.368 144.08 18.088 144.08 18.904C144.08 19.736 144.24 20.472 144.592 21.112C144.944 21.752 145.424 22.232 146.064 22.584ZM150 20.872C149.552 21.384 148.976 21.624 148.256 21.624C147.52 21.624 146.944 21.384 146.512 20.872C146.064 20.36 145.856 19.704 145.856 18.904C145.856 18.104 146.064 17.464 146.512 16.952C146.944 16.44 147.52 16.184 148.256 16.184C148.976 16.184 149.552 16.44 150 16.952C150.448 17.464 150.672 18.104 150.672 18.904C150.672 19.704 150.448 20.36 150 20.872ZM160.829 15.608C160.221 15.016 159.421 14.712 158.461 14.712C157.325 14.712 156.445 15.112 155.837 15.88L155.645 14.808H154.141V23H155.869V18.872C155.869 18.04 156.061 17.4 156.445 16.92C156.829 16.44 157.373 16.2 158.061 16.2C158.701 16.2 159.181 16.408 159.517 16.808C159.837 17.224 160.013 17.816 160.013 18.584V23H161.757V18.488C161.757 17.176 161.437 16.216 160.829 15.608Z" fill="black"/>
</svg>
