<svg width="167" height="34" viewBox="0 0 167 34" fill="none" xmlns="http://www.w3.org/2000/svg">
<circle cx="13" cy="19" r="13" fill="#FEDC98"/>
<path d="M7.03503 19.3487L10.8801 23.7922L20.3769 14.7024" stroke="black" stroke-width="1.71053" stroke-linecap="round" stroke-linejoin="round"/>
<path d="M40.248 14.424C39.8 15.288 39.592 16.28 39.592 17.4C39.592 18.552 39.8 19.544 40.248 20.408C40.696 21.272 41.32 21.928 42.136 22.392C42.952 22.872 43.912 23.096 45 23.096C45.848 23.096 46.616 22.936 47.288 22.616C47.96 22.296 48.504 21.848 48.92 21.256C49.336 20.68 49.608 19.992 49.736 19.192H47.896C47.704 19.912 47.352 20.472 46.84 20.872C46.328 21.288 45.688 21.48 44.92 21.48C44.216 21.48 43.608 21.32 43.096 20.968C42.568 20.616 42.168 20.136 41.896 19.512C41.608 18.904 41.48 18.2 41.48 17.4C41.48 16.6 41.608 15.896 41.896 15.288C42.168 14.68 42.568 14.2 43.096 13.848C43.608 13.496 44.216 13.32 44.92 13.32C45.688 13.32 46.328 13.528 46.856 13.928C47.368 14.344 47.72 14.904 47.912 15.608H49.752C49.624 14.84 49.352 14.152 48.936 13.56C48.504 12.968 47.944 12.504 47.272 12.184C46.6 11.864 45.832 11.704 45 11.704C43.912 11.704 42.952 11.944 42.136 12.424C41.32 12.904 40.696 13.56 40.248 14.424ZM55.9929 14.808H55.6089C54.9689 14.808 54.4729 14.92 54.1049 15.144C53.7209 15.368 53.4169 15.656 53.1929 16.04L53.0009 14.808H51.4649V23H53.1929V18.888C53.1929 18.184 53.3529 17.592 53.6729 17.128C53.9929 16.664 54.5049 16.424 55.2249 16.424H55.9929V14.808ZM59.0259 11.832C58.8179 11.64 58.5619 11.528 58.2739 11.528C57.9699 11.528 57.7139 11.64 57.5219 11.832C57.3139 12.024 57.2179 12.28 57.2179 12.568C57.2179 12.872 57.3139 13.128 57.5219 13.32C57.7139 13.512 57.9699 13.608 58.2739 13.608C58.5619 13.608 58.8179 13.512 59.0259 13.32C59.2179 13.128 59.3299 12.872 59.3299 12.568C59.3299 12.28 59.2179 12.024 59.0259 11.832ZM57.4099 14.808V23H59.1379V14.808H57.4099ZM61.6797 16.328V20.776C61.6797 21.544 61.8557 22.104 62.2077 22.456C62.5597 22.824 63.1357 23 63.9197 23H65.5837V21.48H64.2717C63.9517 21.48 63.7437 21.416 63.6157 21.288C63.4877 21.16 63.4237 20.92 63.4237 20.6V16.328H65.3917V14.808H63.4237V12.52H61.6797V14.808H60.2557V16.328H61.6797ZM68.4471 11.832C68.2391 11.64 67.9831 11.528 67.6951 11.528C67.3911 11.528 67.1351 11.64 66.9431 11.832C66.7351 12.024 66.6391 12.28 66.6391 12.568C66.6391 12.872 66.7351 13.128 66.9431 13.32C67.1351 13.512 67.3911 13.608 67.6951 13.608C67.9831 13.608 68.2391 13.512 68.4471 13.32C68.6391 13.128 68.7511 12.872 68.7511 12.568C68.7511 12.28 68.6391 12.024 68.4471 11.832ZM66.8311 14.808V23H68.5591V14.808H66.8311ZM76.893 22.296C77.549 21.752 77.965 21.016 78.125 20.056H76.365C76.253 20.536 76.029 20.92 75.677 21.208C75.325 21.496 74.877 21.624 74.349 21.624C73.645 21.624 73.085 21.384 72.669 20.872C72.253 20.36 72.045 19.704 72.045 18.888C72.045 18.088 72.253 17.448 72.669 16.936C73.085 16.44 73.645 16.184 74.349 16.184C74.861 16.184 75.293 16.328 75.645 16.6C75.997 16.888 76.221 17.256 76.349 17.72H78.125C77.965 16.792 77.549 16.072 76.909 15.528C76.253 14.984 75.421 14.712 74.397 14.712C73.565 14.712 72.845 14.888 72.221 15.24C71.597 15.592 71.117 16.072 70.781 16.696C70.429 17.336 70.269 18.056 70.269 18.888C70.269 19.72 70.429 20.456 70.765 21.096C71.101 21.736 71.581 22.232 72.205 22.584C72.813 22.936 73.533 23.096 74.349 23.096C75.373 23.096 76.221 22.84 76.893 22.296ZM87.6705 21.496H87.3345C86.9665 21.496 86.7905 21.304 86.7905 20.92V17.688C86.7905 16.728 86.4865 15.992 85.8945 15.48C85.2865 14.968 84.4385 14.712 83.3505 14.712C82.3105 14.712 81.4785 14.952 80.8385 15.4C80.1985 15.848 79.8305 16.488 79.7505 17.304H81.4465C81.5105 16.952 81.7025 16.664 82.0225 16.44C82.3425 16.216 82.7585 16.104 83.2705 16.104C83.8305 16.104 84.2785 16.248 84.5985 16.504C84.9185 16.76 85.0785 17.128 85.0785 17.576V18.072H83.0145C81.8625 18.072 80.9985 18.312 80.4065 18.76C79.7985 19.208 79.5105 19.864 79.5105 20.696C79.5105 21.448 79.7825 22.04 80.3425 22.456C80.8865 22.888 81.6225 23.096 82.5505 23.096C83.7345 23.096 84.6305 22.632 85.2545 21.688C85.2545 22.12 85.3665 22.44 85.6065 22.664C85.8305 22.888 86.2145 23 86.7585 23H87.6705V21.496ZM85.0785 19.352V19.64C85.0625 20.28 84.8545 20.792 84.4545 21.176C84.0545 21.56 83.4945 21.752 82.7905 21.752C82.3105 21.752 81.9425 21.656 81.6705 21.432C81.3985 21.224 81.2705 20.936 81.2705 20.584C81.2705 20.184 81.4145 19.88 81.7025 19.672C81.9905 19.464 82.3905 19.352 82.9345 19.352H85.0785ZM88.9318 11.8V23H90.6598V11.8H88.9318ZM98.6554 19.352L96.8474 19.32C96.8474 20.056 97.0394 20.712 97.4234 21.288C97.8074 21.864 98.3354 22.296 99.0074 22.616C99.6794 22.936 100.447 23.096 101.343 23.096C102.143 23.096 102.847 22.952 103.487 22.664C104.111 22.376 104.607 21.96 104.959 21.432C105.311 20.92 105.487 20.328 105.487 19.656C105.487 18.984 105.311 18.424 104.991 18.008C104.655 17.592 104.223 17.288 103.711 17.064C103.183 16.856 102.559 16.68 101.839 16.552C101.119 16.424 100.575 16.312 100.191 16.2C99.8074 16.104 99.4874 15.944 99.2634 15.72C99.0394 15.512 98.9274 15.224 98.9274 14.856C98.9274 14.344 99.1194 13.96 99.5034 13.672C99.8874 13.384 100.415 13.24 101.071 13.24C101.743 13.24 102.287 13.416 102.735 13.768C103.167 14.12 103.423 14.584 103.487 15.16H105.295C105.263 14.488 105.055 13.896 104.703 13.368C104.335 12.856 103.839 12.44 103.215 12.136C102.575 11.848 101.871 11.688 101.071 11.688C100.287 11.688 99.5994 11.832 98.9914 12.104C98.3834 12.392 97.9194 12.776 97.5834 13.272C97.2474 13.784 97.0874 14.344 97.0874 14.984C97.0874 15.688 97.2474 16.248 97.5674 16.664C97.8874 17.096 98.3194 17.416 98.8314 17.624C99.3434 17.832 99.9674 17.992 100.703 18.12C101.407 18.248 101.967 18.376 102.367 18.488C102.751 18.616 103.071 18.776 103.295 19C103.519 19.224 103.647 19.512 103.647 19.88C103.647 20.408 103.423 20.824 103.007 21.112C102.591 21.4 102.031 21.544 101.359 21.544C100.575 21.544 99.9354 21.352 99.4554 20.952C98.9754 20.552 98.7034 20.024 98.6554 19.352ZM108.931 22.584C109.571 22.936 110.291 23.096 111.123 23.096C111.939 23.096 112.659 22.936 113.299 22.584C113.939 22.232 114.419 21.752 114.771 21.112C115.123 20.472 115.299 19.736 115.299 18.904C115.299 18.088 115.123 17.368 114.771 16.728C114.419 16.088 113.939 15.592 113.299 15.24C112.659 14.888 111.939 14.712 111.123 14.712C110.291 14.712 109.571 14.888 108.931 15.24C108.291 15.592 107.811 16.088 107.459 16.728C107.107 17.368 106.947 18.088 106.947 18.904C106.947 19.736 107.107 20.472 107.459 21.112C107.811 21.752 108.291 22.232 108.931 22.584ZM112.867 20.872C112.419 21.384 111.843 21.624 111.123 21.624C110.387 21.624 109.811 21.384 109.379 20.872C108.931 20.36 108.723 19.704 108.723 18.904C108.723 18.104 108.931 17.464 109.379 16.952C109.811 16.44 110.387 16.184 111.123 16.184C111.843 16.184 112.419 16.44 112.867 16.952C113.315 17.464 113.539 18.104 113.539 18.904C113.539 19.704 113.315 20.36 112.867 20.872ZM117.009 11.8V23H118.737V11.8H117.009ZM128.094 14.808H126.366V18.872C126.366 19.72 126.174 20.392 125.806 20.872C125.422 21.352 124.91 21.592 124.254 21.592C123.614 21.592 123.15 21.384 122.83 20.968C122.51 20.552 122.35 19.944 122.35 19.144V14.808H120.622V19.32C120.622 20.648 120.91 21.608 121.518 22.2C122.11 22.808 122.894 23.096 123.854 23.096C124.91 23.096 125.758 22.728 126.382 21.96L126.574 23H128.094V14.808ZM130.692 16.328V20.776C130.692 21.544 130.868 22.104 131.22 22.456C131.572 22.824 132.148 23 132.932 23H134.596V21.48H133.284C132.964 21.48 132.756 21.416 132.628 21.288C132.5 21.16 132.436 20.92 132.436 20.6V16.328H134.404V14.808H132.436V12.52H130.692V14.808H129.268V16.328H130.692ZM137.46 11.832C137.252 11.64 136.996 11.528 136.708 11.528C136.404 11.528 136.148 11.64 135.956 11.832C135.748 12.024 135.652 12.28 135.652 12.568C135.652 12.872 135.748 13.128 135.956 13.32C136.148 13.512 136.404 13.608 136.708 13.608C136.996 13.608 137.252 13.512 137.46 13.32C137.652 13.128 137.764 12.872 137.764 12.568C137.764 12.28 137.652 12.024 137.46 11.832ZM135.844 14.808V23H137.572V14.808H135.844ZM141.266 22.584C141.906 22.936 142.626 23.096 143.458 23.096C144.274 23.096 144.994 22.936 145.634 22.584C146.274 22.232 146.754 21.752 147.106 21.112C147.458 20.472 147.634 19.736 147.634 18.904C147.634 18.088 147.458 17.368 147.106 16.728C146.754 16.088 146.274 15.592 145.634 15.24C144.994 14.888 144.274 14.712 143.458 14.712C142.626 14.712 141.906 14.888 141.266 15.24C140.626 15.592 140.146 16.088 139.794 16.728C139.442 17.368 139.282 18.088 139.282 18.904C139.282 19.736 139.442 20.472 139.794 21.112C140.146 21.752 140.626 22.232 141.266 22.584ZM145.202 20.872C144.754 21.384 144.178 21.624 143.458 21.624C142.722 21.624 142.146 21.384 141.714 20.872C141.266 20.36 141.058 19.704 141.058 18.904C141.058 18.104 141.266 17.464 141.714 16.952C142.146 16.44 142.722 16.184 143.458 16.184C144.178 16.184 144.754 16.44 145.202 16.952C145.65 17.464 145.874 18.104 145.874 18.904C145.874 19.704 145.65 20.36 145.202 20.872ZM156.031 15.608C155.423 15.016 154.623 14.712 153.663 14.712C152.527 14.712 151.647 15.112 151.039 15.88L150.847 14.808H149.343V23H151.071V18.872C151.071 18.04 151.263 17.4 151.647 16.92C152.031 16.44 152.575 16.2 153.263 16.2C153.903 16.2 154.383 16.408 154.719 16.808C155.039 17.224 155.215 17.816 155.215 18.584V23H156.959V18.488C156.959 17.176 156.639 16.216 156.031 15.608ZM160.227 20.296H158.563C158.579 21.176 158.931 21.864 159.603 22.36C160.275 22.856 161.171 23.096 162.275 23.096C162.915 23.096 163.507 23 164.035 22.792C164.547 22.584 164.963 22.28 165.267 21.896C165.555 21.512 165.715 21.048 165.715 20.536C165.715 19.96 165.571 19.512 165.283 19.176C164.995 18.84 164.611 18.6 164.131 18.44C163.651 18.28 163.059 18.168 162.355 18.088C161.827 18.024 161.443 17.976 161.219 17.928C160.979 17.88 160.787 17.8 160.627 17.672C160.467 17.544 160.403 17.368 160.403 17.112C160.403 16.792 160.547 16.52 160.867 16.328C161.171 16.136 161.571 16.04 162.083 16.04C162.579 16.04 162.995 16.168 163.331 16.408C163.651 16.648 163.843 16.952 163.891 17.32H165.571C165.507 16.488 165.155 15.848 164.515 15.384C163.875 14.936 163.027 14.696 162.003 14.696C161.363 14.696 160.803 14.808 160.307 15.016C159.811 15.24 159.427 15.544 159.139 15.928C158.851 16.312 158.723 16.76 158.723 17.256C158.723 17.8 158.851 18.216 159.139 18.536C159.427 18.856 159.795 19.08 160.259 19.224C160.723 19.368 161.315 19.48 162.035 19.56C162.547 19.624 162.931 19.688 163.187 19.752C163.443 19.816 163.635 19.912 163.795 20.04C163.939 20.184 164.019 20.392 164.019 20.664C164.019 21 163.843 21.272 163.523 21.464C163.203 21.656 162.771 21.752 162.259 21.752C161.667 21.752 161.187 21.624 160.819 21.352C160.451 21.08 160.259 20.728 160.227 20.296Z" fill="black"/>
</svg>
