<svg width="154" height="34" viewBox="0 0 154 34" fill="none" xmlns="http://www.w3.org/2000/svg">
<circle cx="13" cy="17" r="13" fill="#FEDC98"/>
<path d="M7.03503 17.3487L10.8801 21.7922L20.3769 12.7024" stroke="black" stroke-width="1.71053" stroke-linecap="round" stroke-linejoin="round"/>
<path d="M53.024 11.8V23H56.592C57.728 23 58.72 22.776 59.584 22.296C60.432 21.832 61.088 21.176 61.552 20.328C62 19.48 62.24 18.504 62.24 17.4C62.24 16.296 62 15.32 61.552 14.472C61.088 13.64 60.432 12.984 59.584 12.504C58.72 12.04 57.728 11.8 56.592 11.8H53.024ZM56.592 21.4H54.864V13.4H56.592C57.792 13.4 58.72 13.768 59.376 14.488C60.016 15.208 60.352 16.184 60.352 17.4C60.352 18.632 60.016 19.608 59.376 20.328C58.72 21.048 57.792 21.4 56.592 21.4ZM65.6121 11.832C65.4041 11.64 65.1481 11.528 64.8601 11.528C64.5561 11.528 64.3001 11.64 64.1081 11.832C63.9001 12.024 63.8041 12.28 63.8041 12.568C63.8041 12.872 63.9001 13.128 64.1081 13.32C64.3001 13.512 64.5561 13.608 64.8601 13.608C65.1481 13.608 65.4041 13.512 65.6121 13.32C65.8041 13.128 65.9161 12.872 65.9161 12.568C65.9161 12.28 65.8041 12.024 65.6121 11.832ZM63.9961 14.808V23H65.7241V14.808H63.9961ZM75.69 14.808H74.186L73.994 16.088C73.706 15.672 73.354 15.336 72.906 15.08C72.458 14.84 71.914 14.712 71.306 14.712C70.57 14.712 69.898 14.888 69.322 15.24C68.73 15.592 68.266 16.072 67.93 16.696C67.594 17.336 67.434 18.056 67.434 18.872C67.434 19.736 67.594 20.472 67.93 21.096C68.25 21.72 68.714 22.2 69.306 22.536C69.882 22.872 70.554 23.032 71.306 23.032C72.49 23.032 73.37 22.584 73.978 21.688V22.6C73.978 24.136 73.194 24.888 71.626 24.888C71.018 24.888 70.522 24.776 70.138 24.52C69.754 24.264 69.498 23.912 69.402 23.448H67.642C67.706 24.36 68.09 25.064 68.794 25.56C69.482 26.056 70.378 26.296 71.498 26.296C72.922 26.296 73.978 25.992 74.666 25.352C75.338 24.712 75.69 23.816 75.69 22.664V14.808ZM73.322 20.84C72.874 21.336 72.298 21.576 71.594 21.576C70.874 21.576 70.298 21.336 69.866 20.824C69.418 20.328 69.21 19.672 69.21 18.872C69.21 18.072 69.418 17.432 69.866 16.92C70.298 16.424 70.874 16.168 71.594 16.168C72.298 16.168 72.874 16.424 73.322 16.936C73.754 17.448 73.978 18.104 73.978 18.904C73.978 19.704 73.754 20.344 73.322 20.84ZM79.3146 11.832C79.1066 11.64 78.8506 11.528 78.5626 11.528C78.2586 11.528 78.0026 11.64 77.8106 11.832C77.6026 12.024 77.5066 12.28 77.5066 12.568C77.5066 12.872 77.6026 13.128 77.8106 13.32C78.0026 13.512 78.2586 13.608 78.5626 13.608C78.8506 13.608 79.1066 13.512 79.3146 13.32C79.5066 13.128 79.6186 12.872 79.6186 12.568C79.6186 12.28 79.5066 12.024 79.3146 11.832ZM77.6986 14.808V23H79.4266V14.808H77.6986ZM81.9685 16.328V20.776C81.9685 21.544 82.1445 22.104 82.4965 22.456C82.8485 22.824 83.4245 23 84.2085 23H85.8725V21.48H84.5605C84.2405 21.48 84.0325 21.416 83.9045 21.288C83.7765 21.16 83.7125 20.92 83.7125 20.6V16.328H85.6805V14.808H83.7125V12.52H81.9685V14.808H80.5445V16.328H81.9685ZM94.8661 21.496H94.5301C94.1621 21.496 93.9861 21.304 93.9861 20.92V17.688C93.9861 16.728 93.6821 15.992 93.0901 15.48C92.4821 14.968 91.6341 14.712 90.5461 14.712C89.5061 14.712 88.6741 14.952 88.0341 15.4C87.3941 15.848 87.0261 16.488 86.9461 17.304H88.6421C88.7061 16.952 88.8981 16.664 89.2181 16.44C89.5381 16.216 89.9541 16.104 90.4661 16.104C91.0261 16.104 91.4741 16.248 91.7941 16.504C92.1141 16.76 92.2741 17.128 92.2741 17.576V18.072H90.2101C89.0581 18.072 88.1941 18.312 87.6021 18.76C86.9941 19.208 86.7061 19.864 86.7061 20.696C86.7061 21.448 86.9781 22.04 87.5381 22.456C88.0821 22.888 88.8181 23.096 89.7461 23.096C90.9301 23.096 91.8261 22.632 92.4501 21.688C92.4501 22.12 92.5621 22.44 92.8021 22.664C93.0261 22.888 93.4101 23 93.9541 23H94.8661V21.496ZM92.2741 19.352V19.64C92.2581 20.28 92.0501 20.792 91.6501 21.176C91.2501 21.56 90.6901 21.752 89.9861 21.752C89.5061 21.752 89.1381 21.656 88.8661 21.432C88.5941 21.224 88.4661 20.936 88.4661 20.584C88.4661 20.184 88.6101 19.88 88.8981 19.672C89.1861 19.464 89.5861 19.352 90.1301 19.352H92.2741ZM96.1274 11.8V23H97.8554V11.8H96.1274ZM104.459 23H111.115V21.368H106.299V11.8H104.459V23ZM114.282 11.832C114.074 11.64 113.818 11.528 113.53 11.528C113.226 11.528 112.97 11.64 112.778 11.832C112.57 12.024 112.474 12.28 112.474 12.568C112.474 12.872 112.57 13.128 112.778 13.32C112.97 13.512 113.226 13.608 113.53 13.608C113.818 13.608 114.074 13.512 114.282 13.32C114.474 13.128 114.586 12.872 114.586 12.568C114.586 12.28 114.474 12.024 114.282 11.832ZM112.666 14.808V23H114.394V14.808H112.666ZM116.935 16.328V20.776C116.935 21.544 117.111 22.104 117.463 22.456C117.815 22.824 118.391 23 119.175 23H120.839V21.48H119.527C119.207 21.48 118.999 21.416 118.871 21.288C118.743 21.16 118.679 20.92 118.679 20.6V16.328H120.647V14.808H118.679V12.52H116.935V14.808H115.511V16.328H116.935ZM122.107 16.712C121.771 17.352 121.611 18.088 121.611 18.92C121.611 19.752 121.771 20.488 122.123 21.112C122.475 21.752 122.955 22.232 123.595 22.584C124.235 22.936 124.971 23.096 125.835 23.096C126.811 23.096 127.627 22.84 128.283 22.296C128.939 21.768 129.339 21.08 129.499 20.248H127.771C127.643 20.712 127.403 21.064 127.051 21.32C126.683 21.576 126.235 21.688 125.707 21.688C125.035 21.688 124.491 21.48 124.091 21.064C123.675 20.648 123.451 20.088 123.419 19.368V19.272H129.595C129.627 19.048 129.643 18.84 129.643 18.616C129.627 17.832 129.451 17.144 129.099 16.552C128.747 15.976 128.283 15.512 127.675 15.192C127.067 14.872 126.379 14.712 125.595 14.712C124.811 14.712 124.123 14.888 123.515 15.24C122.907 15.592 122.443 16.072 122.107 16.712ZM127.883 18.008H123.483C123.547 17.432 123.771 16.984 124.187 16.632C124.603 16.28 125.083 16.104 125.659 16.104C126.267 16.104 126.763 16.28 127.163 16.616C127.563 16.952 127.803 17.416 127.883 18.008ZM135.888 14.808H135.504C134.864 14.808 134.368 14.92 134 15.144C133.616 15.368 133.312 15.656 133.088 16.04L132.896 14.808H131.36V23H133.088V18.888C133.088 18.184 133.248 17.592 133.568 17.128C133.888 16.664 134.4 16.424 135.12 16.424H135.888V14.808ZM143.234 22.296C143.89 21.752 144.306 21.016 144.466 20.056H142.706C142.594 20.536 142.37 20.92 142.018 21.208C141.666 21.496 141.218 21.624 140.69 21.624C139.986 21.624 139.426 21.384 139.01 20.872C138.594 20.36 138.386 19.704 138.386 18.888C138.386 18.088 138.594 17.448 139.01 16.936C139.426 16.44 139.986 16.184 140.69 16.184C141.202 16.184 141.634 16.328 141.986 16.6C142.338 16.888 142.562 17.256 142.69 17.72H144.466C144.306 16.792 143.89 16.072 143.25 15.528C142.594 14.984 141.762 14.712 140.738 14.712C139.906 14.712 139.186 14.888 138.562 15.24C137.938 15.592 137.458 16.072 137.122 16.696C136.77 17.336 136.61 18.056 136.61 18.888C136.61 19.72 136.77 20.456 137.106 21.096C137.442 21.736 137.922 22.232 138.546 22.584C139.154 22.936 139.874 23.096 140.69 23.096C141.714 23.096 142.562 22.84 143.234 22.296ZM146.852 14.808H145.012L148.212 23.064L147.876 23.848C147.732 24.2 147.604 24.44 147.476 24.536C147.348 24.632 147.108 24.68 146.788 24.68H145.572V26.2H147.428C147.812 26.2 148.132 26.136 148.372 26.008C148.596 25.88 148.804 25.672 148.964 25.416C149.124 25.16 149.3 24.776 149.492 24.28L153.204 14.808H151.364L149.14 21.128L146.852 14.808Z" fill="black"/>
</svg>
