<svg width="200" height="47" viewBox="0 0 200 47" fill="none" xmlns="http://www.w3.org/2000/svg">
<g filter="url(#filter0_d_203_454)">
<path d="M8.45555 19.9873C8.45555 17.0357 8.46496 15.8813 8.62557 14.961C9.45333 10.2181 13.1673 6.50412 17.9102 5.67635C18.8305 5.51574 19.9849 5.50633 22.9366 5.50633H51.3416C54.2933 5.50633 55.4477 5.51574 56.368 5.67635C61.1109 6.50412 64.8248 10.2181 65.6526 14.961C65.8132 15.8813 65.8226 17.0357 65.8226 19.9873V26.9585C65.8226 31.1061 62.4604 34.4684 58.3128 34.4684C56.8768 34.4684 55.4709 34.0567 54.2617 33.282L51.1106 31.2633C50.9632 31.1689 50.8178 31.0757 50.6741 30.9836C46.5044 28.3109 43.8446 26.6061 40.9076 25.9832C38.6981 25.5146 36.4158 25.5066 34.2031 25.9597C31.2618 26.5619 28.5901 28.2481 24.4018 30.8914C24.2574 30.9825 24.1113 31.0747 23.9634 31.168L20.6799 33.2391L21.7366 34.9144L20.6799 33.2391C19.4068 34.0422 17.9323 34.4684 16.4271 34.4684C12.0245 34.4684 8.45555 30.8994 8.45555 26.4968V19.9873Z" stroke="black" stroke-width="5.01266"/>
<circle cx="19.8738" cy="13.5823" r="3.06329" fill="black"/>
<circle cx="15.8355" cy="17.6202" r="1.81013" fill="black"/>
<rect x="4" y="16.3671" width="3.62025" height="9.74684" rx="1.39241" fill="black"/>
<rect x="66.3799" y="16.3671" width="3.62025" height="9.74684" rx="1.39241" fill="black"/>
<path d="M92.257 13.0939H82.9138C80.7321 13.0939 79.4358 14.1531 79.0247 16.2716C78.6137 18.39 79.7836 20.7139 82.5343 23.2434C84.2022 24.5555 83.9176 25.18 81.6807 25.1168H78.0762V30.2152H87.1822C89.6485 29.8042 90.9053 28.5394 90.9527 26.421C91.0001 24.3026 89.7433 22.1209 87.1822 19.876C85.7515 18.6904 86.0519 18.1291 88.0834 18.1924H92.257V13.0939ZM97.8297 13.0939V18.6666L101.742 13.0939H107.315L100.936 21.6546L103.782 25.1168H108.904V30.2152H102.146L97.8297 25.1168V30.2152H92.257V13.0939H97.8297ZM123.599 21.7494C123.599 23.6228 123.208 25.2195 122.425 26.5396C121.642 27.8596 120.508 28.8517 119.022 29.5157C117.544 30.1796 115.777 30.5116 113.722 30.5116C111.667 30.5116 109.9 30.1796 108.422 29.5157C106.952 28.8438 105.837 27.8557 105.078 26.5514C104.32 25.2393 103.94 23.6386 103.94 21.7494C103.94 20.3187 104.158 19.0619 104.592 17.9789C105.027 16.8881 105.663 15.9712 106.501 15.2282C107.339 14.4851 108.367 13.9239 109.584 13.5445C110.801 13.1572 112.181 12.9635 113.722 12.9635C115.769 12.9635 117.536 13.3034 119.022 13.9832C120.508 14.6551 121.642 15.651 122.425 16.9711C123.208 18.2833 123.599 19.876 123.599 21.7494ZM110.023 21.7968C110.023 22.8956 110.268 23.852 110.758 24.6662C111.256 25.4804 112.232 25.8875 113.687 25.8875C114.809 25.8875 115.647 25.674 116.2 25.2472C116.761 24.8203 117.109 24.3342 117.244 23.7888C117.386 23.2355 117.481 22.5715 117.528 21.7968C117.481 20.6981 117.216 19.7417 116.734 18.9275C116.252 18.1054 115.236 17.6944 113.687 17.6944C111.244 17.6944 110.023 19.0619 110.023 21.7968ZM139.124 21.7494C139.124 23.6228 138.732 25.2195 137.95 26.5396C137.167 27.8596 136.033 28.8517 134.547 29.5157C133.069 30.1796 131.302 30.5116 129.247 30.5116C127.192 30.5116 125.425 30.1796 123.947 29.5157C122.477 28.8438 121.362 27.8557 120.603 26.5514C119.845 25.2393 119.465 23.6386 119.465 21.7494C119.465 20.3187 119.682 19.0619 120.117 17.9789C120.552 16.8881 121.188 15.9712 122.026 15.2282C122.864 14.4851 123.892 13.9239 125.109 13.5445C126.326 13.1572 127.706 12.9635 129.247 12.9635C131.294 12.9635 133.061 13.3034 134.547 13.9832C136.033 14.6551 137.167 15.651 137.95 16.9711C138.732 18.2833 139.124 19.876 139.124 21.7494ZM125.548 21.7968C125.548 22.8956 125.793 23.852 126.283 24.6662C126.781 25.4804 127.757 25.8875 129.211 25.8875C130.334 25.8875 131.172 25.674 131.725 25.2472C132.286 24.8203 132.634 24.3342 132.768 23.7888C132.911 23.2355 133.006 22.5715 133.053 21.7968C133.006 20.6981 132.741 19.7417 132.259 18.9275C131.776 18.1054 130.761 17.6944 129.211 17.6944C126.769 17.6944 125.548 19.0619 125.548 21.7968ZM139.954 30.2152V13.0939H145.526V25.1168H154.799V30.2152H139.954ZM156.615 13.0939L162.638 30.2152H171.732L177.839 13.0939H170.974L167.037 26.2432L163.148 13.0939H156.615ZM177.602 25.8045V13.0939H188.747C190.122 13.2204 191.225 13.5603 192.055 14.1136C192.885 14.6669 193.45 15.2005 193.751 15.7143C194.051 16.2281 194.264 16.8565 194.391 17.5995C194.517 18.3426 194.434 19.1528 194.142 20.0302C193.849 20.9076 193.347 21.6229 192.636 22.1763C191.925 22.7296 190.905 23.1643 189.577 23.4805L193.988 30.6895C194.272 31.1005 194.699 31.2665 195.268 31.1875V36.2859C193.008 36.3492 191.529 35.9065 190.834 34.9579L183.791 24.5595V30.2152H177.602V25.8045ZM183.791 17.3624V20.5163H188.107C188.336 20.5163 188.585 20.4333 188.854 20.2673C189.123 20.0934 189.265 19.6626 189.281 18.9749C189.241 18.3188 189.079 17.888 188.794 17.6825C188.518 17.4691 188.285 17.3624 188.095 17.3624H183.791Z" fill="black"/>
</g>
<defs>
<filter id="filter0_d_203_454" x="0" y="0.21521" width="199.316" height="46.7089" filterUnits="userSpaceOnUse" color-interpolation-filters="sRGB">
<feFlood flood-opacity="0" result="BackgroundImageFix"/>
<feColorMatrix in="SourceAlpha" type="matrix" values="0 0 0 0 0 0 0 0 0 0 0 0 0 0 0 0 0 0 127 0" result="hardAlpha"/>
<feOffset dy="4"/>
<feGaussianBlur stdDeviation="2"/>
<feComposite in2="hardAlpha" operator="out"/>
<feColorMatrix type="matrix" values="0 0 0 0 0 0 0 0 0 0 0 0 0 0 0 0 0 0 0.25 0"/>
<feBlend mode="normal" in2="BackgroundImageFix" result="effect1_dropShadow_203_454"/>
<feBlend mode="normal" in="SourceGraphic" in2="effect1_dropShadow_203_454" result="shape"/>
</filter>
</defs>
</svg>
